<?xml version="1.0" encoding="utf-8"?>
<!-- Generator: Adobe Illustrator 21.0.0, SVG Export Plug-In . SVG Version: 6.00 Build 0)  -->
<svg version="1.1" id="Слой_1" xmlns="http://www.w3.org/2000/svg" xmlns:xlink="http://www.w3.org/1999/xlink" x="0px" y="0px"
	 viewBox="0 0 231.5 254.1" style="enable-background:new 0 0 231.5 254.1;" xml:space="preserve">
<g>
	<rect x="202.4" y="49.2" width="2.4" height="27.1"/>
	<rect x="159.2" y="113.9" transform="matrix(0.8668 -0.4986 0.4986 0.8668 -34.3 101.8418)" width="28.7" height="2.4"/>
	<rect x="99.6" y="148.1" transform="matrix(0.8662 -0.4997 0.4997 0.8662 -59.3291 77.0856)" width="29.5" height="2.4"/>
	<rect x="159.5" y="148.9" transform="matrix(0.8668 -0.4986 0.4986 0.8668 -58.8285 101.5646)" width="2.4" height="24"/>
	<rect x="126" y="90.2" transform="matrix(0.8654 -0.501 0.501 0.8654 -34.45 77.6075)" width="2.4" height="25.4"/>
	<rect x="39.3" y="182.7" transform="matrix(0.8661 -0.4998 0.4998 0.8661 -84.6173 51.8186)" width="30.2" height="2.4"/>
	<rect x="66.5" y="124.6" transform="matrix(0.8654 -0.501 0.501 0.8654 -59.6885 52.403)" width="2.4" height="25.4"/>
	<polygon points="96.2,184.3 94.1,185.5 106.1,206.3 108.2,205.1 	"/>
	<polygon points="196.6,29.3 210.7,29.3 210.7,42.8 214.5,42.8 214.5,14.2 210.7,14.2 210.7,25.9 196.6,25.9 196.6,14.2 192.8,14.2 
		192.8,42.8 196.6,42.8 	"/>
	<path d="M215.6,89.7c-1.8-3.3-4.9-5.2-4.9-5.2c-3.1-1.8-7-1.8-7-1.8c-3.9,0-7,1.8-7,1.8c-3.1,1.8-4.9,5.2-4.9,5.2
		c-1.8,3.4-1.8,7.8-1.8,7.8c0,4.3,1.8,7.7,1.8,7.7c1.8,3.4,4.9,5.2,4.9,5.2c3.1,1.8,7,1.8,7,1.8c3.9,0,7-1.8,7-1.8
		c3.1-1.8,4.9-5.2,4.9-5.2c1.8-3.4,1.8-7.8,1.8-7.8C217.4,93,215.6,89.7,215.6,89.7z M212.2,103.7c-1.2,2.6-3.4,4-3.4,4
		c-2.2,1.4-5.1,1.4-5.1,1.4c-2.8,0-5-1.4-5-1.4c-2.2-1.4-3.5-4-3.5-4c-1.2-2.6-1.2-6.1-1.2-6.1c0-3.6,1.2-6.3,1.2-6.3
		c1.2-2.6,3.4-4,3.4-4c2.2-1.4,5.1-1.4,5.1-1.4c2.9,0,5.1,1.4,5.1,1.4c2.2,1.4,3.4,4,3.4,4c1.2,2.6,1.2,6.2,1.2,6.2
		C213.4,101.1,212.2,103.7,212.2,103.7z"/>
	<path d="M156.8,137.1l-3.7-0.9c-0.8,3.5-3,5.4-3,5.4c-2.2,1.8-5.5,1.8-5.5,1.8c-2.9,0-5-1.4-5-1.4c-2.1-1.4-3.2-4.1-3.2-4.1
		c-1.1-2.6-1.1-6.3-1.1-6.3c0-3.3,1.1-5.9,1.1-5.9c1.1-2.6,3.2-4,3.2-4c2.1-1.4,5.1-1.4,5.1-1.4c3,0,5,1.5,5,1.5
		c2,1.5,2.9,4.5,2.9,4.5l3.7-0.9c-1.1-4.1-4.1-6.2-4.1-6.2c-3-2.2-7.4-2.2-7.4-2.2c-3.8,0-6.9,1.8-6.9,1.8c-3,1.8-4.7,5.1-4.7,5.1
		c-1.7,3.3-1.7,7.8-1.7,7.8c0,4.6,1.6,8,1.6,8c1.6,3.4,4.6,5.2,4.6,5.2c3,1.8,7.1,1.8,7.1,1.8c3,0,5.5-1.2,5.5-1.2
		c2.5-1.1,4.2-3.3,4.2-3.3C156.1,140.1,156.8,137.1,156.8,137.1z"/>
	<path d="M97.2,171.5l-3.7-0.9c-0.8,3.5-3,5.4-3,5.4c-2.2,1.8-5.5,1.8-5.5,1.8c-2.9,0-5-1.4-5-1.4c-2.1-1.4-3.2-4.1-3.2-4.1
		c-1-2.7-1-6.3-1-6.3c0-3.3,1-5.9,1-5.9c1.1-2.6,3.2-4,3.2-4c2.1-1.4,5-1.4,5-1.4c3.1,0,5,1.5,5,1.5c2,1.5,2.9,4.5,2.9,4.5l3.7-0.9
		c-1.2-4.1-4.1-6.2-4.1-6.2c-3-2.2-7.4-2.2-7.4-2.2c-3.8,0-6.9,1.8-6.9,1.8c-3,1.8-4.7,5.1-4.7,5.1c-1.7,3.3-1.7,7.8-1.7,7.8
		c0,4.7,1.6,8,1.6,8c1.6,3.4,4.6,5.2,4.6,5.2c3,1.8,7.1,1.8,7.1,1.8c3,0,5.5-1.1,5.5-1.1c2.5-1.2,4.2-3.3,4.2-3.3
		C96.5,174.5,97.2,171.5,97.2,171.5z"/>
	<polygon points="185.5,188.6 171.4,188.6 171.4,176.9 167.6,176.9 167.6,205.5 171.4,205.5 171.4,192 185.5,192 185.5,205.5 
		189.3,205.5 189.3,176.9 185.5,176.9 	"/>
	<polygon points="102.7,72.9 116.8,72.9 116.8,86.4 120.6,86.4 120.6,57.8 116.8,57.8 116.8,69.5 102.7,69.5 102.7,57.8 98.9,57.8 
		98.9,86.4 102.7,86.4 	"/>
	<polygon points="32,197.9 18,197.9 18,186.1 14.2,186.1 14.2,214.7 18,214.7 18,201.3 32,201.3 32,214.7 35.8,214.7 35.8,186.1 
		32,186.1 	"/>
	<polygon points="43.1,107.3 57.2,107.3 57.2,120.8 61,120.8 61,92.1 57.2,92.1 57.2,103.9 43.1,103.9 43.1,92.1 39.3,92.1 
		39.3,120.8 43.1,120.8 	"/>
	<polygon points="126,223 111.9,223 111.9,211.3 108.1,211.3 108.1,239.9 111.9,239.9 111.9,226.4 126,226.4 126,239.9 129.8,239.9 
		129.8,211.3 126,211.3 	"/>
</g>
</svg>
