<svg xmlns="http://www.w3.org/2000/svg" xmlns:xlink="http://www.w3.org/1999/xlink" height="1290" width="1290">
  <rect height="1290" id="bgbar" rx="0" ry="0" style="fill: rgb(255,255,255); stroke-width: 0" width="1290" x="0" y="0" shape-rendering="crispEdges"/>
  <g id="group_code" style="fill: rgb(0,0,0)">
    <rect height="30" id="rect_0_0" rx="0" ry="0" width="30" x="150" y="150"/>
    <rect height="30" id="rect_1_0" rx="0" ry="0" width="30" x="180" y="150"/>
    <rect height="30" id="rect_2_0" rx="0" ry="0" width="30" x="210" y="150"/>
    <rect height="30" id="rect_3_0" rx="0" ry="0" width="30" x="240" y="150"/>
    <rect height="30" id="rect_4_0" rx="0" ry="0" width="30" x="270" y="150"/>
    <rect height="30" id="rect_5_0" rx="0" ry="0" width="30" x="300" y="150"/>
    <rect height="30" id="rect_6_0" rx="0" ry="0" width="30" x="330" y="150"/>
    <rect height="30" id="rect_8_0" rx="0" ry="0" width="30" x="390" y="150"/>
    <rect height="30" id="rect_9_0" rx="0" ry="0" width="30" x="420" y="150"/>
    <rect height="30" id="rect_11_0" rx="0" ry="0" width="30" x="480" y="150"/>
    <rect height="30" id="rect_17_0" rx="0" ry="0" width="30" x="660" y="150"/>
    <rect height="30" id="rect_18_0" rx="0" ry="0" width="30" x="690" y="150"/>
    <rect height="30" id="rect_19_0" rx="0" ry="0" width="30" x="720" y="150"/>
    <rect height="30" id="rect_22_0" rx="0" ry="0" width="30" x="810" y="150"/>
    <rect height="30" id="rect_24_0" rx="0" ry="0" width="30" x="870" y="150"/>
    <rect height="30" id="rect_26_0" rx="0" ry="0" width="30" x="930" y="150"/>
    <rect height="30" id="rect_27_0" rx="0" ry="0" width="30" x="960" y="150"/>
    <rect height="30" id="rect_28_0" rx="0" ry="0" width="30" x="990" y="150"/>
    <rect height="30" id="rect_29_0" rx="0" ry="0" width="30" x="1020" y="150"/>
    <rect height="30" id="rect_30_0" rx="0" ry="0" width="30" x="1050" y="150"/>
    <rect height="30" id="rect_31_0" rx="0" ry="0" width="30" x="1080" y="150"/>
    <rect height="30" id="rect_32_0" rx="0" ry="0" width="30" x="1110" y="150"/>
    <rect height="30" id="rect_0_1" rx="0" ry="0" width="30" x="150" y="180"/>
    <rect height="30" id="rect_6_1" rx="0" ry="0" width="30" x="330" y="180"/>
    <rect height="30" id="rect_10_1" rx="0" ry="0" width="30" x="450" y="180"/>
    <rect height="30" id="rect_14_1" rx="0" ry="0" width="30" x="570" y="180"/>
    <rect height="30" id="rect_15_1" rx="0" ry="0" width="30" x="600" y="180"/>
    <rect height="30" id="rect_18_1" rx="0" ry="0" width="30" x="690" y="180"/>
    <rect height="30" id="rect_19_1" rx="0" ry="0" width="30" x="720" y="180"/>
    <rect height="30" id="rect_21_1" rx="0" ry="0" width="30" x="780" y="180"/>
    <rect height="30" id="rect_22_1" rx="0" ry="0" width="30" x="810" y="180"/>
    <rect height="30" id="rect_24_1" rx="0" ry="0" width="30" x="870" y="180"/>
    <rect height="30" id="rect_26_1" rx="0" ry="0" width="30" x="930" y="180"/>
    <rect height="30" id="rect_32_1" rx="0" ry="0" width="30" x="1110" y="180"/>
    <rect height="30" id="rect_0_2" rx="0" ry="0" width="30" x="150" y="210"/>
    <rect height="30" id="rect_2_2" rx="0" ry="0" width="30" x="210" y="210"/>
    <rect height="30" id="rect_3_2" rx="0" ry="0" width="30" x="240" y="210"/>
    <rect height="30" id="rect_4_2" rx="0" ry="0" width="30" x="270" y="210"/>
    <rect height="30" id="rect_6_2" rx="0" ry="0" width="30" x="330" y="210"/>
    <rect height="30" id="rect_8_2" rx="0" ry="0" width="30" x="390" y="210"/>
    <rect height="30" id="rect_10_2" rx="0" ry="0" width="30" x="450" y="210"/>
    <rect height="30" id="rect_11_2" rx="0" ry="0" width="30" x="480" y="210"/>
    <rect height="30" id="rect_13_2" rx="0" ry="0" width="30" x="540" y="210"/>
    <rect height="30" id="rect_14_2" rx="0" ry="0" width="30" x="570" y="210"/>
    <rect height="30" id="rect_15_2" rx="0" ry="0" width="30" x="600" y="210"/>
    <rect height="30" id="rect_16_2" rx="0" ry="0" width="30" x="630" y="210"/>
    <rect height="30" id="rect_17_2" rx="0" ry="0" width="30" x="660" y="210"/>
    <rect height="30" id="rect_18_2" rx="0" ry="0" width="30" x="690" y="210"/>
    <rect height="30" id="rect_21_2" rx="0" ry="0" width="30" x="780" y="210"/>
    <rect height="30" id="rect_23_2" rx="0" ry="0" width="30" x="840" y="210"/>
    <rect height="30" id="rect_24_2" rx="0" ry="0" width="30" x="870" y="210"/>
    <rect height="30" id="rect_26_2" rx="0" ry="0" width="30" x="930" y="210"/>
    <rect height="30" id="rect_28_2" rx="0" ry="0" width="30" x="990" y="210"/>
    <rect height="30" id="rect_29_2" rx="0" ry="0" width="30" x="1020" y="210"/>
    <rect height="30" id="rect_30_2" rx="0" ry="0" width="30" x="1050" y="210"/>
    <rect height="30" id="rect_32_2" rx="0" ry="0" width="30" x="1110" y="210"/>
    <rect height="30" id="rect_0_3" rx="0" ry="0" width="30" x="150" y="240"/>
    <rect height="30" id="rect_2_3" rx="0" ry="0" width="30" x="210" y="240"/>
    <rect height="30" id="rect_3_3" rx="0" ry="0" width="30" x="240" y="240"/>
    <rect height="30" id="rect_4_3" rx="0" ry="0" width="30" x="270" y="240"/>
    <rect height="30" id="rect_6_3" rx="0" ry="0" width="30" x="330" y="240"/>
    <rect height="30" id="rect_10_3" rx="0" ry="0" width="30" x="450" y="240"/>
    <rect height="30" id="rect_12_3" rx="0" ry="0" width="30" x="510" y="240"/>
    <rect height="30" id="rect_13_3" rx="0" ry="0" width="30" x="540" y="240"/>
    <rect height="30" id="rect_17_3" rx="0" ry="0" width="30" x="660" y="240"/>
    <rect height="30" id="rect_18_3" rx="0" ry="0" width="30" x="690" y="240"/>
    <rect height="30" id="rect_19_3" rx="0" ry="0" width="30" x="720" y="240"/>
    <rect height="30" id="rect_20_3" rx="0" ry="0" width="30" x="750" y="240"/>
    <rect height="30" id="rect_21_3" rx="0" ry="0" width="30" x="780" y="240"/>
    <rect height="30" id="rect_23_3" rx="0" ry="0" width="30" x="840" y="240"/>
    <rect height="30" id="rect_24_3" rx="0" ry="0" width="30" x="870" y="240"/>
    <rect height="30" id="rect_26_3" rx="0" ry="0" width="30" x="930" y="240"/>
    <rect height="30" id="rect_28_3" rx="0" ry="0" width="30" x="990" y="240"/>
    <rect height="30" id="rect_29_3" rx="0" ry="0" width="30" x="1020" y="240"/>
    <rect height="30" id="rect_30_3" rx="0" ry="0" width="30" x="1050" y="240"/>
    <rect height="30" id="rect_32_3" rx="0" ry="0" width="30" x="1110" y="240"/>
    <rect height="30" id="rect_0_4" rx="0" ry="0" width="30" x="150" y="270"/>
    <rect height="30" id="rect_2_4" rx="0" ry="0" width="30" x="210" y="270"/>
    <rect height="30" id="rect_3_4" rx="0" ry="0" width="30" x="240" y="270"/>
    <rect height="30" id="rect_4_4" rx="0" ry="0" width="30" x="270" y="270"/>
    <rect height="30" id="rect_6_4" rx="0" ry="0" width="30" x="330" y="270"/>
    <rect height="30" id="rect_8_4" rx="0" ry="0" width="30" x="390" y="270"/>
    <rect height="30" id="rect_10_4" rx="0" ry="0" width="30" x="450" y="270"/>
    <rect height="30" id="rect_12_4" rx="0" ry="0" width="30" x="510" y="270"/>
    <rect height="30" id="rect_14_4" rx="0" ry="0" width="30" x="570" y="270"/>
    <rect height="30" id="rect_19_4" rx="0" ry="0" width="30" x="720" y="270"/>
    <rect height="30" id="rect_21_4" rx="0" ry="0" width="30" x="780" y="270"/>
    <rect height="30" id="rect_26_4" rx="0" ry="0" width="30" x="930" y="270"/>
    <rect height="30" id="rect_28_4" rx="0" ry="0" width="30" x="990" y="270"/>
    <rect height="30" id="rect_29_4" rx="0" ry="0" width="30" x="1020" y="270"/>
    <rect height="30" id="rect_30_4" rx="0" ry="0" width="30" x="1050" y="270"/>
    <rect height="30" id="rect_32_4" rx="0" ry="0" width="30" x="1110" y="270"/>
    <rect height="30" id="rect_0_5" rx="0" ry="0" width="30" x="150" y="300"/>
    <rect height="30" id="rect_6_5" rx="0" ry="0" width="30" x="330" y="300"/>
    <rect height="30" id="rect_10_5" rx="0" ry="0" width="30" x="450" y="300"/>
    <rect height="30" id="rect_11_5" rx="0" ry="0" width="30" x="480" y="300"/>
    <rect height="30" id="rect_12_5" rx="0" ry="0" width="30" x="510" y="300"/>
    <rect height="30" id="rect_14_5" rx="0" ry="0" width="30" x="570" y="300"/>
    <rect height="30" id="rect_16_5" rx="0" ry="0" width="30" x="630" y="300"/>
    <rect height="30" id="rect_17_5" rx="0" ry="0" width="30" x="660" y="300"/>
    <rect height="30" id="rect_20_5" rx="0" ry="0" width="30" x="750" y="300"/>
    <rect height="30" id="rect_21_5" rx="0" ry="0" width="30" x="780" y="300"/>
    <rect height="30" id="rect_23_5" rx="0" ry="0" width="30" x="840" y="300"/>
    <rect height="30" id="rect_24_5" rx="0" ry="0" width="30" x="870" y="300"/>
    <rect height="30" id="rect_26_5" rx="0" ry="0" width="30" x="930" y="300"/>
    <rect height="30" id="rect_32_5" rx="0" ry="0" width="30" x="1110" y="300"/>
    <rect height="30" id="rect_0_6" rx="0" ry="0" width="30" x="150" y="330"/>
    <rect height="30" id="rect_1_6" rx="0" ry="0" width="30" x="180" y="330"/>
    <rect height="30" id="rect_2_6" rx="0" ry="0" width="30" x="210" y="330"/>
    <rect height="30" id="rect_3_6" rx="0" ry="0" width="30" x="240" y="330"/>
    <rect height="30" id="rect_4_6" rx="0" ry="0" width="30" x="270" y="330"/>
    <rect height="30" id="rect_5_6" rx="0" ry="0" width="30" x="300" y="330"/>
    <rect height="30" id="rect_6_6" rx="0" ry="0" width="30" x="330" y="330"/>
    <rect height="30" id="rect_8_6" rx="0" ry="0" width="30" x="390" y="330"/>
    <rect height="30" id="rect_10_6" rx="0" ry="0" width="30" x="450" y="330"/>
    <rect height="30" id="rect_12_6" rx="0" ry="0" width="30" x="510" y="330"/>
    <rect height="30" id="rect_14_6" rx="0" ry="0" width="30" x="570" y="330"/>
    <rect height="30" id="rect_16_6" rx="0" ry="0" width="30" x="630" y="330"/>
    <rect height="30" id="rect_18_6" rx="0" ry="0" width="30" x="690" y="330"/>
    <rect height="30" id="rect_20_6" rx="0" ry="0" width="30" x="750" y="330"/>
    <rect height="30" id="rect_22_6" rx="0" ry="0" width="30" x="810" y="330"/>
    <rect height="30" id="rect_24_6" rx="0" ry="0" width="30" x="870" y="330"/>
    <rect height="30" id="rect_26_6" rx="0" ry="0" width="30" x="930" y="330"/>
    <rect height="30" id="rect_27_6" rx="0" ry="0" width="30" x="960" y="330"/>
    <rect height="30" id="rect_28_6" rx="0" ry="0" width="30" x="990" y="330"/>
    <rect height="30" id="rect_29_6" rx="0" ry="0" width="30" x="1020" y="330"/>
    <rect height="30" id="rect_30_6" rx="0" ry="0" width="30" x="1050" y="330"/>
    <rect height="30" id="rect_31_6" rx="0" ry="0" width="30" x="1080" y="330"/>
    <rect height="30" id="rect_32_6" rx="0" ry="0" width="30" x="1110" y="330"/>
    <rect height="30" id="rect_8_7" rx="0" ry="0" width="30" x="390" y="360"/>
    <rect height="30" id="rect_10_7" rx="0" ry="0" width="30" x="450" y="360"/>
    <rect height="30" id="rect_11_7" rx="0" ry="0" width="30" x="480" y="360"/>
    <rect height="30" id="rect_13_7" rx="0" ry="0" width="30" x="540" y="360"/>
    <rect height="30" id="rect_14_7" rx="0" ry="0" width="30" x="570" y="360"/>
    <rect height="30" id="rect_22_7" rx="0" ry="0" width="30" x="810" y="360"/>
    <rect height="30" id="rect_23_7" rx="0" ry="0" width="30" x="840" y="360"/>
    <rect height="30" id="rect_5_8" rx="0" ry="0" width="30" x="300" y="390"/>
    <rect height="30" id="rect_6_8" rx="0" ry="0" width="30" x="330" y="390"/>
    <rect height="30" id="rect_11_8" rx="0" ry="0" width="30" x="480" y="390"/>
    <rect height="30" id="rect_12_8" rx="0" ry="0" width="30" x="510" y="390"/>
    <rect height="30" id="rect_13_8" rx="0" ry="0" width="30" x="540" y="390"/>
    <rect height="30" id="rect_16_8" rx="0" ry="0" width="30" x="630" y="390"/>
    <rect height="30" id="rect_17_8" rx="0" ry="0" width="30" x="660" y="390"/>
    <rect height="30" id="rect_18_8" rx="0" ry="0" width="30" x="690" y="390"/>
    <rect height="30" id="rect_19_8" rx="0" ry="0" width="30" x="720" y="390"/>
    <rect height="30" id="rect_20_8" rx="0" ry="0" width="30" x="750" y="390"/>
    <rect height="30" id="rect_22_8" rx="0" ry="0" width="30" x="810" y="390"/>
    <rect height="30" id="rect_23_8" rx="0" ry="0" width="30" x="840" y="390"/>
    <rect height="30" id="rect_24_8" rx="0" ry="0" width="30" x="870" y="390"/>
    <rect height="30" id="rect_26_8" rx="0" ry="0" width="30" x="930" y="390"/>
    <rect height="30" id="rect_28_8" rx="0" ry="0" width="30" x="990" y="390"/>
    <rect height="30" id="rect_30_8" rx="0" ry="0" width="30" x="1050" y="390"/>
    <rect height="30" id="rect_32_8" rx="0" ry="0" width="30" x="1110" y="390"/>
    <rect height="30" id="rect_1_9" rx="0" ry="0" width="30" x="180" y="420"/>
    <rect height="30" id="rect_4_9" rx="0" ry="0" width="30" x="270" y="420"/>
    <rect height="30" id="rect_5_9" rx="0" ry="0" width="30" x="300" y="420"/>
    <rect height="30" id="rect_8_9" rx="0" ry="0" width="30" x="390" y="420"/>
    <rect height="30" id="rect_11_9" rx="0" ry="0" width="30" x="480" y="420"/>
    <rect height="30" id="rect_14_9" rx="0" ry="0" width="30" x="570" y="420"/>
    <rect height="30" id="rect_17_9" rx="0" ry="0" width="30" x="660" y="420"/>
    <rect height="30" id="rect_18_9" rx="0" ry="0" width="30" x="690" y="420"/>
    <rect height="30" id="rect_20_9" rx="0" ry="0" width="30" x="750" y="420"/>
    <rect height="30" id="rect_22_9" rx="0" ry="0" width="30" x="810" y="420"/>
    <rect height="30" id="rect_23_9" rx="0" ry="0" width="30" x="840" y="420"/>
    <rect height="30" id="rect_25_9" rx="0" ry="0" width="30" x="900" y="420"/>
    <rect height="30" id="rect_27_9" rx="0" ry="0" width="30" x="960" y="420"/>
    <rect height="30" id="rect_28_9" rx="0" ry="0" width="30" x="990" y="420"/>
    <rect height="30" id="rect_29_9" rx="0" ry="0" width="30" x="1020" y="420"/>
    <rect height="30" id="rect_0_10" rx="0" ry="0" width="30" x="150" y="450"/>
    <rect height="30" id="rect_2_10" rx="0" ry="0" width="30" x="210" y="450"/>
    <rect height="30" id="rect_5_10" rx="0" ry="0" width="30" x="300" y="450"/>
    <rect height="30" id="rect_6_10" rx="0" ry="0" width="30" x="330" y="450"/>
    <rect height="30" id="rect_8_10" rx="0" ry="0" width="30" x="390" y="450"/>
    <rect height="30" id="rect_9_10" rx="0" ry="0" width="30" x="420" y="450"/>
    <rect height="30" id="rect_11_10" rx="0" ry="0" width="30" x="480" y="450"/>
    <rect height="30" id="rect_12_10" rx="0" ry="0" width="30" x="510" y="450"/>
    <rect height="30" id="rect_15_10" rx="0" ry="0" width="30" x="600" y="450"/>
    <rect height="30" id="rect_16_10" rx="0" ry="0" width="30" x="630" y="450"/>
    <rect height="30" id="rect_17_10" rx="0" ry="0" width="30" x="660" y="450"/>
    <rect height="30" id="rect_18_10" rx="0" ry="0" width="30" x="690" y="450"/>
    <rect height="30" id="rect_19_10" rx="0" ry="0" width="30" x="720" y="450"/>
    <rect height="30" id="rect_20_10" rx="0" ry="0" width="30" x="750" y="450"/>
    <rect height="30" id="rect_21_10" rx="0" ry="0" width="30" x="780" y="450"/>
    <rect height="30" id="rect_24_10" rx="0" ry="0" width="30" x="870" y="450"/>
    <rect height="30" id="rect_25_10" rx="0" ry="0" width="30" x="900" y="450"/>
    <rect height="30" id="rect_26_10" rx="0" ry="0" width="30" x="930" y="450"/>
    <rect height="30" id="rect_27_10" rx="0" ry="0" width="30" x="960" y="450"/>
    <rect height="30" id="rect_31_10" rx="0" ry="0" width="30" x="1080" y="450"/>
    <rect height="30" id="rect_1_11" rx="0" ry="0" width="30" x="180" y="480"/>
    <rect height="30" id="rect_2_11" rx="0" ry="0" width="30" x="210" y="480"/>
    <rect height="30" id="rect_5_11" rx="0" ry="0" width="30" x="300" y="480"/>
    <rect height="30" id="rect_9_11" rx="0" ry="0" width="30" x="420" y="480"/>
    <rect height="30" id="rect_10_11" rx="0" ry="0" width="30" x="450" y="480"/>
    <rect height="30" id="rect_11_11" rx="0" ry="0" width="30" x="480" y="480"/>
    <rect height="30" id="rect_13_11" rx="0" ry="0" width="30" x="540" y="480"/>
    <rect height="30" id="rect_14_11" rx="0" ry="0" width="30" x="570" y="480"/>
    <rect height="30" id="rect_16_11" rx="0" ry="0" width="30" x="630" y="480"/>
    <rect height="30" id="rect_17_11" rx="0" ry="0" width="30" x="660" y="480"/>
    <rect height="30" id="rect_18_11" rx="0" ry="0" width="30" x="690" y="480"/>
    <rect height="30" id="rect_19_11" rx="0" ry="0" width="30" x="720" y="480"/>
    <rect height="30" id="rect_20_11" rx="0" ry="0" width="30" x="750" y="480"/>
    <rect height="30" id="rect_22_11" rx="0" ry="0" width="30" x="810" y="480"/>
    <rect height="30" id="rect_25_11" rx="0" ry="0" width="30" x="900" y="480"/>
    <rect height="30" id="rect_26_11" rx="0" ry="0" width="30" x="930" y="480"/>
    <rect height="30" id="rect_27_11" rx="0" ry="0" width="30" x="960" y="480"/>
    <rect height="30" id="rect_29_11" rx="0" ry="0" width="30" x="1020" y="480"/>
    <rect height="30" id="rect_30_11" rx="0" ry="0" width="30" x="1050" y="480"/>
    <rect height="30" id="rect_32_11" rx="0" ry="0" width="30" x="1110" y="480"/>
    <rect height="30" id="rect_1_12" rx="0" ry="0" width="30" x="180" y="510"/>
    <rect height="30" id="rect_6_12" rx="0" ry="0" width="30" x="330" y="510"/>
    <rect height="30" id="rect_7_12" rx="0" ry="0" width="30" x="360" y="510"/>
    <rect height="30" id="rect_8_12" rx="0" ry="0" width="30" x="390" y="510"/>
    <rect height="30" id="rect_9_12" rx="0" ry="0" width="30" x="420" y="510"/>
    <rect height="30" id="rect_17_12" rx="0" ry="0" width="30" x="660" y="510"/>
    <rect height="30" id="rect_18_12" rx="0" ry="0" width="30" x="690" y="510"/>
    <rect height="30" id="rect_19_12" rx="0" ry="0" width="30" x="720" y="510"/>
    <rect height="30" id="rect_21_12" rx="0" ry="0" width="30" x="780" y="510"/>
    <rect height="30" id="rect_22_12" rx="0" ry="0" width="30" x="810" y="510"/>
    <rect height="30" id="rect_24_12" rx="0" ry="0" width="30" x="870" y="510"/>
    <rect height="30" id="rect_26_12" rx="0" ry="0" width="30" x="930" y="510"/>
    <rect height="30" id="rect_27_12" rx="0" ry="0" width="30" x="960" y="510"/>
    <rect height="30" id="rect_28_12" rx="0" ry="0" width="30" x="990" y="510"/>
    <rect height="30" id="rect_31_12" rx="0" ry="0" width="30" x="1080" y="510"/>
    <rect height="30" id="rect_32_12" rx="0" ry="0" width="30" x="1110" y="510"/>
    <rect height="30" id="rect_1_13" rx="0" ry="0" width="30" x="180" y="540"/>
    <rect height="30" id="rect_2_13" rx="0" ry="0" width="30" x="210" y="540"/>
    <rect height="30" id="rect_3_13" rx="0" ry="0" width="30" x="240" y="540"/>
    <rect height="30" id="rect_4_13" rx="0" ry="0" width="30" x="270" y="540"/>
    <rect height="30" id="rect_7_13" rx="0" ry="0" width="30" x="360" y="540"/>
    <rect height="30" id="rect_8_13" rx="0" ry="0" width="30" x="390" y="540"/>
    <rect height="30" id="rect_10_13" rx="0" ry="0" width="30" x="450" y="540"/>
    <rect height="30" id="rect_13_13" rx="0" ry="0" width="30" x="540" y="540"/>
    <rect height="30" id="rect_14_13" rx="0" ry="0" width="30" x="570" y="540"/>
    <rect height="30" id="rect_15_13" rx="0" ry="0" width="30" x="600" y="540"/>
    <rect height="30" id="rect_16_13" rx="0" ry="0" width="30" x="630" y="540"/>
    <rect height="30" id="rect_17_13" rx="0" ry="0" width="30" x="660" y="540"/>
    <rect height="30" id="rect_19_13" rx="0" ry="0" width="30" x="720" y="540"/>
    <rect height="30" id="rect_21_13" rx="0" ry="0" width="30" x="780" y="540"/>
    <rect height="30" id="rect_22_13" rx="0" ry="0" width="30" x="810" y="540"/>
    <rect height="30" id="rect_23_13" rx="0" ry="0" width="30" x="840" y="540"/>
    <rect height="30" id="rect_25_13" rx="0" ry="0" width="30" x="900" y="540"/>
    <rect height="30" id="rect_26_13" rx="0" ry="0" width="30" x="930" y="540"/>
    <rect height="30" id="rect_29_13" rx="0" ry="0" width="30" x="1020" y="540"/>
    <rect height="30" id="rect_32_13" rx="0" ry="0" width="30" x="1110" y="540"/>
    <rect height="30" id="rect_2_14" rx="0" ry="0" width="30" x="210" y="570"/>
    <rect height="30" id="rect_3_14" rx="0" ry="0" width="30" x="240" y="570"/>
    <rect height="30" id="rect_4_14" rx="0" ry="0" width="30" x="270" y="570"/>
    <rect height="30" id="rect_6_14" rx="0" ry="0" width="30" x="330" y="570"/>
    <rect height="30" id="rect_10_14" rx="0" ry="0" width="30" x="450" y="570"/>
    <rect height="30" id="rect_12_14" rx="0" ry="0" width="30" x="510" y="570"/>
    <rect height="30" id="rect_13_14" rx="0" ry="0" width="30" x="540" y="570"/>
    <rect height="30" id="rect_15_14" rx="0" ry="0" width="30" x="600" y="570"/>
    <rect height="30" id="rect_18_14" rx="0" ry="0" width="30" x="690" y="570"/>
    <rect height="30" id="rect_19_14" rx="0" ry="0" width="30" x="720" y="570"/>
    <rect height="30" id="rect_20_14" rx="0" ry="0" width="30" x="750" y="570"/>
    <rect height="30" id="rect_22_14" rx="0" ry="0" width="30" x="810" y="570"/>
    <rect height="30" id="rect_25_14" rx="0" ry="0" width="30" x="900" y="570"/>
    <rect height="30" id="rect_26_14" rx="0" ry="0" width="30" x="930" y="570"/>
    <rect height="30" id="rect_28_14" rx="0" ry="0" width="30" x="990" y="570"/>
    <rect height="30" id="rect_29_14" rx="0" ry="0" width="30" x="1020" y="570"/>
    <rect height="30" id="rect_31_14" rx="0" ry="0" width="30" x="1080" y="570"/>
    <rect height="30" id="rect_0_15" rx="0" ry="0" width="30" x="150" y="600"/>
    <rect height="30" id="rect_1_15" rx="0" ry="0" width="30" x="180" y="600"/>
    <rect height="30" id="rect_3_15" rx="0" ry="0" width="30" x="240" y="600"/>
    <rect height="30" id="rect_4_15" rx="0" ry="0" width="30" x="270" y="600"/>
    <rect height="30" id="rect_7_15" rx="0" ry="0" width="30" x="360" y="600"/>
    <rect height="30" id="rect_8_15" rx="0" ry="0" width="30" x="390" y="600"/>
    <rect height="30" id="rect_11_15" rx="0" ry="0" width="30" x="480" y="600"/>
    <rect height="30" id="rect_12_15" rx="0" ry="0" width="30" x="510" y="600"/>
    <rect height="30" id="rect_13_15" rx="0" ry="0" width="30" x="540" y="600"/>
    <rect height="30" id="rect_14_15" rx="0" ry="0" width="30" x="570" y="600"/>
    <rect height="30" id="rect_15_15" rx="0" ry="0" width="30" x="600" y="600"/>
    <rect height="30" id="rect_16_15" rx="0" ry="0" width="30" x="630" y="600"/>
    <rect height="30" id="rect_17_15" rx="0" ry="0" width="30" x="660" y="600"/>
    <rect height="30" id="rect_19_15" rx="0" ry="0" width="30" x="720" y="600"/>
    <rect height="30" id="rect_24_15" rx="0" ry="0" width="30" x="870" y="600"/>
    <rect height="30" id="rect_25_15" rx="0" ry="0" width="30" x="900" y="600"/>
    <rect height="30" id="rect_27_15" rx="0" ry="0" width="30" x="960" y="600"/>
    <rect height="30" id="rect_29_15" rx="0" ry="0" width="30" x="1020" y="600"/>
    <rect height="30" id="rect_30_15" rx="0" ry="0" width="30" x="1050" y="600"/>
    <rect height="30" id="rect_31_15" rx="0" ry="0" width="30" x="1080" y="600"/>
    <rect height="30" id="rect_32_15" rx="0" ry="0" width="30" x="1110" y="600"/>
    <rect height="30" id="rect_1_16" rx="0" ry="0" width="30" x="180" y="630"/>
    <rect height="30" id="rect_4_16" rx="0" ry="0" width="30" x="270" y="630"/>
    <rect height="30" id="rect_6_16" rx="0" ry="0" width="30" x="330" y="630"/>
    <rect height="30" id="rect_8_16" rx="0" ry="0" width="30" x="390" y="630"/>
    <rect height="30" id="rect_9_16" rx="0" ry="0" width="30" x="420" y="630"/>
    <rect height="30" id="rect_10_16" rx="0" ry="0" width="30" x="450" y="630"/>
    <rect height="30" id="rect_13_16" rx="0" ry="0" width="30" x="540" y="630"/>
    <rect height="30" id="rect_14_16" rx="0" ry="0" width="30" x="570" y="630"/>
    <rect height="30" id="rect_15_16" rx="0" ry="0" width="30" x="600" y="630"/>
    <rect height="30" id="rect_16_16" rx="0" ry="0" width="30" x="630" y="630"/>
    <rect height="30" id="rect_17_16" rx="0" ry="0" width="30" x="660" y="630"/>
    <rect height="30" id="rect_18_16" rx="0" ry="0" width="30" x="690" y="630"/>
    <rect height="30" id="rect_19_16" rx="0" ry="0" width="30" x="720" y="630"/>
    <rect height="30" id="rect_20_16" rx="0" ry="0" width="30" x="750" y="630"/>
    <rect height="30" id="rect_25_16" rx="0" ry="0" width="30" x="900" y="630"/>
    <rect height="30" id="rect_27_16" rx="0" ry="0" width="30" x="960" y="630"/>
    <rect height="30" id="rect_28_16" rx="0" ry="0" width="30" x="990" y="630"/>
    <rect height="30" id="rect_31_16" rx="0" ry="0" width="30" x="1080" y="630"/>
    <rect height="30" id="rect_32_16" rx="0" ry="0" width="30" x="1110" y="630"/>
    <rect height="30" id="rect_1_17" rx="0" ry="0" width="30" x="180" y="660"/>
    <rect height="30" id="rect_2_17" rx="0" ry="0" width="30" x="210" y="660"/>
    <rect height="30" id="rect_4_17" rx="0" ry="0" width="30" x="270" y="660"/>
    <rect height="30" id="rect_5_17" rx="0" ry="0" width="30" x="300" y="660"/>
    <rect height="30" id="rect_8_17" rx="0" ry="0" width="30" x="390" y="660"/>
    <rect height="30" id="rect_10_17" rx="0" ry="0" width="30" x="450" y="660"/>
    <rect height="30" id="rect_12_17" rx="0" ry="0" width="30" x="510" y="660"/>
    <rect height="30" id="rect_13_17" rx="0" ry="0" width="30" x="540" y="660"/>
    <rect height="30" id="rect_14_17" rx="0" ry="0" width="30" x="570" y="660"/>
    <rect height="30" id="rect_16_17" rx="0" ry="0" width="30" x="630" y="660"/>
    <rect height="30" id="rect_17_17" rx="0" ry="0" width="30" x="660" y="660"/>
    <rect height="30" id="rect_18_17" rx="0" ry="0" width="30" x="690" y="660"/>
    <rect height="30" id="rect_20_17" rx="0" ry="0" width="30" x="750" y="660"/>
    <rect height="30" id="rect_21_17" rx="0" ry="0" width="30" x="780" y="660"/>
    <rect height="30" id="rect_23_17" rx="0" ry="0" width="30" x="840" y="660"/>
    <rect height="30" id="rect_24_17" rx="0" ry="0" width="30" x="870" y="660"/>
    <rect height="30" id="rect_26_17" rx="0" ry="0" width="30" x="930" y="660"/>
    <rect height="30" id="rect_32_17" rx="0" ry="0" width="30" x="1110" y="660"/>
    <rect height="30" id="rect_2_18" rx="0" ry="0" width="30" x="210" y="690"/>
    <rect height="30" id="rect_3_18" rx="0" ry="0" width="30" x="240" y="690"/>
    <rect height="30" id="rect_5_18" rx="0" ry="0" width="30" x="300" y="690"/>
    <rect height="30" id="rect_6_18" rx="0" ry="0" width="30" x="330" y="690"/>
    <rect height="30" id="rect_8_18" rx="0" ry="0" width="30" x="390" y="690"/>
    <rect height="30" id="rect_9_18" rx="0" ry="0" width="30" x="420" y="690"/>
    <rect height="30" id="rect_10_18" rx="0" ry="0" width="30" x="450" y="690"/>
    <rect height="30" id="rect_11_18" rx="0" ry="0" width="30" x="480" y="690"/>
    <rect height="30" id="rect_13_18" rx="0" ry="0" width="30" x="540" y="690"/>
    <rect height="30" id="rect_15_18" rx="0" ry="0" width="30" x="600" y="690"/>
    <rect height="30" id="rect_17_18" rx="0" ry="0" width="30" x="660" y="690"/>
    <rect height="30" id="rect_18_18" rx="0" ry="0" width="30" x="690" y="690"/>
    <rect height="30" id="rect_20_18" rx="0" ry="0" width="30" x="750" y="690"/>
    <rect height="30" id="rect_23_18" rx="0" ry="0" width="30" x="840" y="690"/>
    <rect height="30" id="rect_28_18" rx="0" ry="0" width="30" x="990" y="690"/>
    <rect height="30" id="rect_29_18" rx="0" ry="0" width="30" x="1020" y="690"/>
    <rect height="30" id="rect_30_18" rx="0" ry="0" width="30" x="1050" y="690"/>
    <rect height="30" id="rect_32_18" rx="0" ry="0" width="30" x="1110" y="690"/>
    <rect height="30" id="rect_0_19" rx="0" ry="0" width="30" x="150" y="720"/>
    <rect height="30" id="rect_1_19" rx="0" ry="0" width="30" x="180" y="720"/>
    <rect height="30" id="rect_3_19" rx="0" ry="0" width="30" x="240" y="720"/>
    <rect height="30" id="rect_4_19" rx="0" ry="0" width="30" x="270" y="720"/>
    <rect height="30" id="rect_7_19" rx="0" ry="0" width="30" x="360" y="720"/>
    <rect height="30" id="rect_11_19" rx="0" ry="0" width="30" x="480" y="720"/>
    <rect height="30" id="rect_12_19" rx="0" ry="0" width="30" x="510" y="720"/>
    <rect height="30" id="rect_14_19" rx="0" ry="0" width="30" x="570" y="720"/>
    <rect height="30" id="rect_15_19" rx="0" ry="0" width="30" x="600" y="720"/>
    <rect height="30" id="rect_17_19" rx="0" ry="0" width="30" x="660" y="720"/>
    <rect height="30" id="rect_18_19" rx="0" ry="0" width="30" x="690" y="720"/>
    <rect height="30" id="rect_20_19" rx="0" ry="0" width="30" x="750" y="720"/>
    <rect height="30" id="rect_22_19" rx="0" ry="0" width="30" x="810" y="720"/>
    <rect height="30" id="rect_23_19" rx="0" ry="0" width="30" x="840" y="720"/>
    <rect height="30" id="rect_24_19" rx="0" ry="0" width="30" x="870" y="720"/>
    <rect height="30" id="rect_26_19" rx="0" ry="0" width="30" x="930" y="720"/>
    <rect height="30" id="rect_27_19" rx="0" ry="0" width="30" x="960" y="720"/>
    <rect height="30" id="rect_29_19" rx="0" ry="0" width="30" x="1020" y="720"/>
    <rect height="30" id="rect_30_19" rx="0" ry="0" width="30" x="1050" y="720"/>
    <rect height="30" id="rect_2_20" rx="0" ry="0" width="30" x="210" y="750"/>
    <rect height="30" id="rect_3_20" rx="0" ry="0" width="30" x="240" y="750"/>
    <rect height="30" id="rect_5_20" rx="0" ry="0" width="30" x="300" y="750"/>
    <rect height="30" id="rect_6_20" rx="0" ry="0" width="30" x="330" y="750"/>
    <rect height="30" id="rect_7_20" rx="0" ry="0" width="30" x="360" y="750"/>
    <rect height="30" id="rect_8_20" rx="0" ry="0" width="30" x="390" y="750"/>
    <rect height="30" id="rect_9_20" rx="0" ry="0" width="30" x="420" y="750"/>
    <rect height="30" id="rect_12_20" rx="0" ry="0" width="30" x="510" y="750"/>
    <rect height="30" id="rect_13_20" rx="0" ry="0" width="30" x="540" y="750"/>
    <rect height="30" id="rect_15_20" rx="0" ry="0" width="30" x="600" y="750"/>
    <rect height="30" id="rect_17_20" rx="0" ry="0" width="30" x="660" y="750"/>
    <rect height="30" id="rect_20_20" rx="0" ry="0" width="30" x="750" y="750"/>
    <rect height="30" id="rect_22_20" rx="0" ry="0" width="30" x="810" y="750"/>
    <rect height="30" id="rect_25_20" rx="0" ry="0" width="30" x="900" y="750"/>
    <rect height="30" id="rect_26_20" rx="0" ry="0" width="30" x="930" y="750"/>
    <rect height="30" id="rect_27_20" rx="0" ry="0" width="30" x="960" y="750"/>
    <rect height="30" id="rect_28_20" rx="0" ry="0" width="30" x="990" y="750"/>
    <rect height="30" id="rect_29_20" rx="0" ry="0" width="30" x="1020" y="750"/>
    <rect height="30" id="rect_32_20" rx="0" ry="0" width="30" x="1110" y="750"/>
    <rect height="30" id="rect_0_21" rx="0" ry="0" width="30" x="150" y="780"/>
    <rect height="30" id="rect_1_21" rx="0" ry="0" width="30" x="180" y="780"/>
    <rect height="30" id="rect_4_21" rx="0" ry="0" width="30" x="270" y="780"/>
    <rect height="30" id="rect_5_21" rx="0" ry="0" width="30" x="300" y="780"/>
    <rect height="30" id="rect_8_21" rx="0" ry="0" width="30" x="390" y="780"/>
    <rect height="30" id="rect_9_21" rx="0" ry="0" width="30" x="420" y="780"/>
    <rect height="30" id="rect_12_21" rx="0" ry="0" width="30" x="510" y="780"/>
    <rect height="30" id="rect_15_21" rx="0" ry="0" width="30" x="600" y="780"/>
    <rect height="30" id="rect_16_21" rx="0" ry="0" width="30" x="630" y="780"/>
    <rect height="30" id="rect_17_21" rx="0" ry="0" width="30" x="660" y="780"/>
    <rect height="30" id="rect_18_21" rx="0" ry="0" width="30" x="690" y="780"/>
    <rect height="30" id="rect_21_21" rx="0" ry="0" width="30" x="780" y="780"/>
    <rect height="30" id="rect_24_21" rx="0" ry="0" width="30" x="870" y="780"/>
    <rect height="30" id="rect_26_21" rx="0" ry="0" width="30" x="930" y="780"/>
    <rect height="30" id="rect_27_21" rx="0" ry="0" width="30" x="960" y="780"/>
    <rect height="30" id="rect_28_21" rx="0" ry="0" width="30" x="990" y="780"/>
    <rect height="30" id="rect_0_22" rx="0" ry="0" width="30" x="150" y="810"/>
    <rect height="30" id="rect_3_22" rx="0" ry="0" width="30" x="240" y="810"/>
    <rect height="30" id="rect_4_22" rx="0" ry="0" width="30" x="270" y="810"/>
    <rect height="30" id="rect_6_22" rx="0" ry="0" width="30" x="330" y="810"/>
    <rect height="30" id="rect_7_22" rx="0" ry="0" width="30" x="360" y="810"/>
    <rect height="30" id="rect_9_22" rx="0" ry="0" width="30" x="420" y="810"/>
    <rect height="30" id="rect_10_22" rx="0" ry="0" width="30" x="450" y="810"/>
    <rect height="30" id="rect_12_22" rx="0" ry="0" width="30" x="510" y="810"/>
    <rect height="30" id="rect_13_22" rx="0" ry="0" width="30" x="540" y="810"/>
    <rect height="30" id="rect_16_22" rx="0" ry="0" width="30" x="630" y="810"/>
    <rect height="30" id="rect_18_22" rx="0" ry="0" width="30" x="690" y="810"/>
    <rect height="30" id="rect_20_22" rx="0" ry="0" width="30" x="750" y="810"/>
    <rect height="30" id="rect_22_22" rx="0" ry="0" width="30" x="810" y="810"/>
    <rect height="30" id="rect_28_22" rx="0" ry="0" width="30" x="990" y="810"/>
    <rect height="30" id="rect_29_22" rx="0" ry="0" width="30" x="1020" y="810"/>
    <rect height="30" id="rect_30_22" rx="0" ry="0" width="30" x="1050" y="810"/>
    <rect height="30" id="rect_0_23" rx="0" ry="0" width="30" x="150" y="840"/>
    <rect height="30" id="rect_2_23" rx="0" ry="0" width="30" x="210" y="840"/>
    <rect height="30" id="rect_4_23" rx="0" ry="0" width="30" x="270" y="840"/>
    <rect height="30" id="rect_5_23" rx="0" ry="0" width="30" x="300" y="840"/>
    <rect height="30" id="rect_7_23" rx="0" ry="0" width="30" x="360" y="840"/>
    <rect height="30" id="rect_8_23" rx="0" ry="0" width="30" x="390" y="840"/>
    <rect height="30" id="rect_10_23" rx="0" ry="0" width="30" x="450" y="840"/>
    <rect height="30" id="rect_12_23" rx="0" ry="0" width="30" x="510" y="840"/>
    <rect height="30" id="rect_14_23" rx="0" ry="0" width="30" x="570" y="840"/>
    <rect height="30" id="rect_15_23" rx="0" ry="0" width="30" x="600" y="840"/>
    <rect height="30" id="rect_16_23" rx="0" ry="0" width="30" x="630" y="840"/>
    <rect height="30" id="rect_17_23" rx="0" ry="0" width="30" x="660" y="840"/>
    <rect height="30" id="rect_19_23" rx="0" ry="0" width="30" x="720" y="840"/>
    <rect height="30" id="rect_20_23" rx="0" ry="0" width="30" x="750" y="840"/>
    <rect height="30" id="rect_22_23" rx="0" ry="0" width="30" x="810" y="840"/>
    <rect height="30" id="rect_24_23" rx="0" ry="0" width="30" x="870" y="840"/>
    <rect height="30" id="rect_27_23" rx="0" ry="0" width="30" x="960" y="840"/>
    <rect height="30" id="rect_29_23" rx="0" ry="0" width="30" x="1020" y="840"/>
    <rect height="30" id="rect_30_23" rx="0" ry="0" width="30" x="1050" y="840"/>
    <rect height="30" id="rect_32_23" rx="0" ry="0" width="30" x="1110" y="840"/>
    <rect height="30" id="rect_0_24" rx="0" ry="0" width="30" x="150" y="870"/>
    <rect height="30" id="rect_1_24" rx="0" ry="0" width="30" x="180" y="870"/>
    <rect height="30" id="rect_2_24" rx="0" ry="0" width="30" x="210" y="870"/>
    <rect height="30" id="rect_3_24" rx="0" ry="0" width="30" x="240" y="870"/>
    <rect height="30" id="rect_4_24" rx="0" ry="0" width="30" x="270" y="870"/>
    <rect height="30" id="rect_6_24" rx="0" ry="0" width="30" x="330" y="870"/>
    <rect height="30" id="rect_7_24" rx="0" ry="0" width="30" x="360" y="870"/>
    <rect height="30" id="rect_10_24" rx="0" ry="0" width="30" x="450" y="870"/>
    <rect height="30" id="rect_11_24" rx="0" ry="0" width="30" x="480" y="870"/>
    <rect height="30" id="rect_12_24" rx="0" ry="0" width="30" x="510" y="870"/>
    <rect height="30" id="rect_13_24" rx="0" ry="0" width="30" x="540" y="870"/>
    <rect height="30" id="rect_14_24" rx="0" ry="0" width="30" x="570" y="870"/>
    <rect height="30" id="rect_15_24" rx="0" ry="0" width="30" x="600" y="870"/>
    <rect height="30" id="rect_17_24" rx="0" ry="0" width="30" x="660" y="870"/>
    <rect height="30" id="rect_19_24" rx="0" ry="0" width="30" x="720" y="870"/>
    <rect height="30" id="rect_23_24" rx="0" ry="0" width="30" x="840" y="870"/>
    <rect height="30" id="rect_24_24" rx="0" ry="0" width="30" x="870" y="870"/>
    <rect height="30" id="rect_25_24" rx="0" ry="0" width="30" x="900" y="870"/>
    <rect height="30" id="rect_26_24" rx="0" ry="0" width="30" x="930" y="870"/>
    <rect height="30" id="rect_27_24" rx="0" ry="0" width="30" x="960" y="870"/>
    <rect height="30" id="rect_28_24" rx="0" ry="0" width="30" x="990" y="870"/>
    <rect height="30" id="rect_29_24" rx="0" ry="0" width="30" x="1020" y="870"/>
    <rect height="30" id="rect_32_24" rx="0" ry="0" width="30" x="1110" y="870"/>
    <rect height="30" id="rect_8_25" rx="0" ry="0" width="30" x="390" y="900"/>
    <rect height="30" id="rect_10_25" rx="0" ry="0" width="30" x="450" y="900"/>
    <rect height="30" id="rect_12_25" rx="0" ry="0" width="30" x="510" y="900"/>
    <rect height="30" id="rect_15_25" rx="0" ry="0" width="30" x="600" y="900"/>
    <rect height="30" id="rect_16_25" rx="0" ry="0" width="30" x="630" y="900"/>
    <rect height="30" id="rect_17_25" rx="0" ry="0" width="30" x="660" y="900"/>
    <rect height="30" id="rect_18_25" rx="0" ry="0" width="30" x="690" y="900"/>
    <rect height="30" id="rect_20_25" rx="0" ry="0" width="30" x="750" y="900"/>
    <rect height="30" id="rect_21_25" rx="0" ry="0" width="30" x="780" y="900"/>
    <rect height="30" id="rect_24_25" rx="0" ry="0" width="30" x="870" y="900"/>
    <rect height="30" id="rect_28_25" rx="0" ry="0" width="30" x="990" y="900"/>
    <rect height="30" id="rect_30_25" rx="0" ry="0" width="30" x="1050" y="900"/>
    <rect height="30" id="rect_31_25" rx="0" ry="0" width="30" x="1080" y="900"/>
    <rect height="30" id="rect_32_25" rx="0" ry="0" width="30" x="1110" y="900"/>
    <rect height="30" id="rect_0_26" rx="0" ry="0" width="30" x="150" y="930"/>
    <rect height="30" id="rect_1_26" rx="0" ry="0" width="30" x="180" y="930"/>
    <rect height="30" id="rect_2_26" rx="0" ry="0" width="30" x="210" y="930"/>
    <rect height="30" id="rect_3_26" rx="0" ry="0" width="30" x="240" y="930"/>
    <rect height="30" id="rect_4_26" rx="0" ry="0" width="30" x="270" y="930"/>
    <rect height="30" id="rect_5_26" rx="0" ry="0" width="30" x="300" y="930"/>
    <rect height="30" id="rect_6_26" rx="0" ry="0" width="30" x="330" y="930"/>
    <rect height="30" id="rect_9_26" rx="0" ry="0" width="30" x="420" y="930"/>
    <rect height="30" id="rect_10_26" rx="0" ry="0" width="30" x="450" y="930"/>
    <rect height="30" id="rect_12_26" rx="0" ry="0" width="30" x="510" y="930"/>
    <rect height="30" id="rect_14_26" rx="0" ry="0" width="30" x="570" y="930"/>
    <rect height="30" id="rect_15_26" rx="0" ry="0" width="30" x="600" y="930"/>
    <rect height="30" id="rect_17_26" rx="0" ry="0" width="30" x="660" y="930"/>
    <rect height="30" id="rect_19_26" rx="0" ry="0" width="30" x="720" y="930"/>
    <rect height="30" id="rect_22_26" rx="0" ry="0" width="30" x="810" y="930"/>
    <rect height="30" id="rect_23_26" rx="0" ry="0" width="30" x="840" y="930"/>
    <rect height="30" id="rect_24_26" rx="0" ry="0" width="30" x="870" y="930"/>
    <rect height="30" id="rect_26_26" rx="0" ry="0" width="30" x="930" y="930"/>
    <rect height="30" id="rect_28_26" rx="0" ry="0" width="30" x="990" y="930"/>
    <rect height="30" id="rect_31_26" rx="0" ry="0" width="30" x="1080" y="930"/>
    <rect height="30" id="rect_0_27" rx="0" ry="0" width="30" x="150" y="960"/>
    <rect height="30" id="rect_6_27" rx="0" ry="0" width="30" x="330" y="960"/>
    <rect height="30" id="rect_8_27" rx="0" ry="0" width="30" x="390" y="960"/>
    <rect height="30" id="rect_9_27" rx="0" ry="0" width="30" x="420" y="960"/>
    <rect height="30" id="rect_10_27" rx="0" ry="0" width="30" x="450" y="960"/>
    <rect height="30" id="rect_11_27" rx="0" ry="0" width="30" x="480" y="960"/>
    <rect height="30" id="rect_12_27" rx="0" ry="0" width="30" x="510" y="960"/>
    <rect height="30" id="rect_13_27" rx="0" ry="0" width="30" x="540" y="960"/>
    <rect height="30" id="rect_18_27" rx="0" ry="0" width="30" x="690" y="960"/>
    <rect height="30" id="rect_21_27" rx="0" ry="0" width="30" x="780" y="960"/>
    <rect height="30" id="rect_22_27" rx="0" ry="0" width="30" x="810" y="960"/>
    <rect height="30" id="rect_23_27" rx="0" ry="0" width="30" x="840" y="960"/>
    <rect height="30" id="rect_24_27" rx="0" ry="0" width="30" x="870" y="960"/>
    <rect height="30" id="rect_28_27" rx="0" ry="0" width="30" x="990" y="960"/>
    <rect height="30" id="rect_29_27" rx="0" ry="0" width="30" x="1020" y="960"/>
    <rect height="30" id="rect_30_27" rx="0" ry="0" width="30" x="1050" y="960"/>
    <rect height="30" id="rect_31_27" rx="0" ry="0" width="30" x="1080" y="960"/>
    <rect height="30" id="rect_0_28" rx="0" ry="0" width="30" x="150" y="990"/>
    <rect height="30" id="rect_2_28" rx="0" ry="0" width="30" x="210" y="990"/>
    <rect height="30" id="rect_3_28" rx="0" ry="0" width="30" x="240" y="990"/>
    <rect height="30" id="rect_4_28" rx="0" ry="0" width="30" x="270" y="990"/>
    <rect height="30" id="rect_6_28" rx="0" ry="0" width="30" x="330" y="990"/>
    <rect height="30" id="rect_13_28" rx="0" ry="0" width="30" x="540" y="990"/>
    <rect height="30" id="rect_14_28" rx="0" ry="0" width="30" x="570" y="990"/>
    <rect height="30" id="rect_16_28" rx="0" ry="0" width="30" x="630" y="990"/>
    <rect height="30" id="rect_18_28" rx="0" ry="0" width="30" x="690" y="990"/>
    <rect height="30" id="rect_20_28" rx="0" ry="0" width="30" x="750" y="990"/>
    <rect height="30" id="rect_21_28" rx="0" ry="0" width="30" x="780" y="990"/>
    <rect height="30" id="rect_22_28" rx="0" ry="0" width="30" x="810" y="990"/>
    <rect height="30" id="rect_24_28" rx="0" ry="0" width="30" x="870" y="990"/>
    <rect height="30" id="rect_25_28" rx="0" ry="0" width="30" x="900" y="990"/>
    <rect height="30" id="rect_26_28" rx="0" ry="0" width="30" x="930" y="990"/>
    <rect height="30" id="rect_27_28" rx="0" ry="0" width="30" x="960" y="990"/>
    <rect height="30" id="rect_28_28" rx="0" ry="0" width="30" x="990" y="990"/>
    <rect height="30" id="rect_29_28" rx="0" ry="0" width="30" x="1020" y="990"/>
    <rect height="30" id="rect_31_28" rx="0" ry="0" width="30" x="1080" y="990"/>
    <rect height="30" id="rect_32_28" rx="0" ry="0" width="30" x="1110" y="990"/>
    <rect height="30" id="rect_0_29" rx="0" ry="0" width="30" x="150" y="1020"/>
    <rect height="30" id="rect_2_29" rx="0" ry="0" width="30" x="210" y="1020"/>
    <rect height="30" id="rect_3_29" rx="0" ry="0" width="30" x="240" y="1020"/>
    <rect height="30" id="rect_4_29" rx="0" ry="0" width="30" x="270" y="1020"/>
    <rect height="30" id="rect_6_29" rx="0" ry="0" width="30" x="330" y="1020"/>
    <rect height="30" id="rect_9_29" rx="0" ry="0" width="30" x="420" y="1020"/>
    <rect height="30" id="rect_13_29" rx="0" ry="0" width="30" x="540" y="1020"/>
    <rect height="30" id="rect_15_29" rx="0" ry="0" width="30" x="600" y="1020"/>
    <rect height="30" id="rect_17_29" rx="0" ry="0" width="30" x="660" y="1020"/>
    <rect height="30" id="rect_18_29" rx="0" ry="0" width="30" x="690" y="1020"/>
    <rect height="30" id="rect_19_29" rx="0" ry="0" width="30" x="720" y="1020"/>
    <rect height="30" id="rect_20_29" rx="0" ry="0" width="30" x="750" y="1020"/>
    <rect height="30" id="rect_21_29" rx="0" ry="0" width="30" x="780" y="1020"/>
    <rect height="30" id="rect_23_29" rx="0" ry="0" width="30" x="840" y="1020"/>
    <rect height="30" id="rect_24_29" rx="0" ry="0" width="30" x="870" y="1020"/>
    <rect height="30" id="rect_25_29" rx="0" ry="0" width="30" x="900" y="1020"/>
    <rect height="30" id="rect_27_29" rx="0" ry="0" width="30" x="960" y="1020"/>
    <rect height="30" id="rect_28_29" rx="0" ry="0" width="30" x="990" y="1020"/>
    <rect height="30" id="rect_29_29" rx="0" ry="0" width="30" x="1020" y="1020"/>
    <rect height="30" id="rect_31_29" rx="0" ry="0" width="30" x="1080" y="1020"/>
    <rect height="30" id="rect_0_30" rx="0" ry="0" width="30" x="150" y="1050"/>
    <rect height="30" id="rect_2_30" rx="0" ry="0" width="30" x="210" y="1050"/>
    <rect height="30" id="rect_3_30" rx="0" ry="0" width="30" x="240" y="1050"/>
    <rect height="30" id="rect_4_30" rx="0" ry="0" width="30" x="270" y="1050"/>
    <rect height="30" id="rect_6_30" rx="0" ry="0" width="30" x="330" y="1050"/>
    <rect height="30" id="rect_9_30" rx="0" ry="0" width="30" x="420" y="1050"/>
    <rect height="30" id="rect_14_30" rx="0" ry="0" width="30" x="570" y="1050"/>
    <rect height="30" id="rect_15_30" rx="0" ry="0" width="30" x="600" y="1050"/>
    <rect height="30" id="rect_16_30" rx="0" ry="0" width="30" x="630" y="1050"/>
    <rect height="30" id="rect_17_30" rx="0" ry="0" width="30" x="660" y="1050"/>
    <rect height="30" id="rect_18_30" rx="0" ry="0" width="30" x="690" y="1050"/>
    <rect height="30" id="rect_19_30" rx="0" ry="0" width="30" x="720" y="1050"/>
    <rect height="30" id="rect_22_30" rx="0" ry="0" width="30" x="810" y="1050"/>
    <rect height="30" id="rect_23_30" rx="0" ry="0" width="30" x="840" y="1050"/>
    <rect height="30" id="rect_24_30" rx="0" ry="0" width="30" x="870" y="1050"/>
    <rect height="30" id="rect_28_30" rx="0" ry="0" width="30" x="990" y="1050"/>
    <rect height="30" id="rect_29_30" rx="0" ry="0" width="30" x="1020" y="1050"/>
    <rect height="30" id="rect_30_30" rx="0" ry="0" width="30" x="1050" y="1050"/>
    <rect height="30" id="rect_31_30" rx="0" ry="0" width="30" x="1080" y="1050"/>
    <rect height="30" id="rect_32_30" rx="0" ry="0" width="30" x="1110" y="1050"/>
    <rect height="30" id="rect_0_31" rx="0" ry="0" width="30" x="150" y="1080"/>
    <rect height="30" id="rect_6_31" rx="0" ry="0" width="30" x="330" y="1080"/>
    <rect height="30" id="rect_12_31" rx="0" ry="0" width="30" x="510" y="1080"/>
    <rect height="30" id="rect_21_31" rx="0" ry="0" width="30" x="780" y="1080"/>
    <rect height="30" id="rect_25_31" rx="0" ry="0" width="30" x="900" y="1080"/>
    <rect height="30" id="rect_30_31" rx="0" ry="0" width="30" x="1050" y="1080"/>
    <rect height="30" id="rect_0_32" rx="0" ry="0" width="30" x="150" y="1110"/>
    <rect height="30" id="rect_1_32" rx="0" ry="0" width="30" x="180" y="1110"/>
    <rect height="30" id="rect_2_32" rx="0" ry="0" width="30" x="210" y="1110"/>
    <rect height="30" id="rect_3_32" rx="0" ry="0" width="30" x="240" y="1110"/>
    <rect height="30" id="rect_4_32" rx="0" ry="0" width="30" x="270" y="1110"/>
    <rect height="30" id="rect_5_32" rx="0" ry="0" width="30" x="300" y="1110"/>
    <rect height="30" id="rect_6_32" rx="0" ry="0" width="30" x="330" y="1110"/>
    <rect height="30" id="rect_9_32" rx="0" ry="0" width="30" x="420" y="1110"/>
    <rect height="30" id="rect_11_32" rx="0" ry="0" width="30" x="480" y="1110"/>
    <rect height="30" id="rect_12_32" rx="0" ry="0" width="30" x="510" y="1110"/>
    <rect height="30" id="rect_15_32" rx="0" ry="0" width="30" x="600" y="1110"/>
    <rect height="30" id="rect_16_32" rx="0" ry="0" width="30" x="630" y="1110"/>
    <rect height="30" id="rect_18_32" rx="0" ry="0" width="30" x="690" y="1110"/>
    <rect height="30" id="rect_19_32" rx="0" ry="0" width="30" x="720" y="1110"/>
    <rect height="30" id="rect_20_32" rx="0" ry="0" width="30" x="750" y="1110"/>
    <rect height="30" id="rect_21_32" rx="0" ry="0" width="30" x="780" y="1110"/>
    <rect height="30" id="rect_22_32" rx="0" ry="0" width="30" x="810" y="1110"/>
    <rect height="30" id="rect_23_32" rx="0" ry="0" width="30" x="840" y="1110"/>
    <rect height="30" id="rect_24_32" rx="0" ry="0" width="30" x="870" y="1110"/>
    <rect height="30" id="rect_26_32" rx="0" ry="0" width="30" x="930" y="1110"/>
    <rect height="30" id="rect_31_32" rx="0" ry="0" width="30" x="1080" y="1110"/>
  </g>
  <rect height="120" id="framebar" rx="0" ry="0" style="fill: rgb(255,255,255); stroke: rgb(); stroke-width: " width="120" x="585" y="585"/>
  <g id="logo_group">
    <svg xmlns="http://www.w3.org/2000/svg" xmlns:xlink="http://www.w3.org/1999/xlink" enable-background="new 0 0 300 300" height="118" id="logoAtCenter" version="1.1" viewBox="0 0 300 300" width="118" x="586" xml:space="preserve" y="586">
      <path d="M137.625,0.942v20.331h-26.076v23.424h26.076v25.192H51v25.192h86.625v112.454l-25.846-21.656v26.995  l25.846,21.656v65.622h24.75v-44.903l25.863,21.674v-26.995l-25.863-21.674V95.081H249V69.888h-86.625V44.696h26.076V21.272h-26.076  V0.942H137.625z" id="rect1389"/>
    </svg>
  </g>
</svg>
