<svg xmlns="http://www.w3.org/2000/svg" width="1290" height="1290">
  <rect width="1290" height="1290" rx="0" ry="0" shape-rendering="crispEdges" style="fill:#fff;stroke-width:0;stroke-opacity:0;stroke:none"/>
  <g style="fill:#000">
    <rect width="30" height="30" x="150" y="150" rx="0" ry="0"/>
    <rect width="30" height="30" x="180" y="150" rx="0" ry="0"/>
    <rect width="30" height="30" x="210" y="150" rx="0" ry="0"/>
    <rect width="30" height="30" x="240" y="150" rx="0" ry="0"/>
    <rect width="30" height="30" x="270" y="150" rx="0" ry="0"/>
    <rect width="30" height="30" x="300" y="150" rx="0" ry="0"/>
    <rect width="30" height="30" x="330" y="150" rx="0" ry="0"/>
    <rect width="30" height="30" x="390" y="150" rx="0" ry="0"/>
    <rect width="30" height="30" x="420" y="150" rx="0" ry="0"/>
    <rect width="30" height="30" x="480" y="150" rx="0" ry="0"/>
    <rect width="30" height="30" x="660" y="150" rx="0" ry="0"/>
    <rect width="30" height="30" x="690" y="150" rx="0" ry="0"/>
    <rect width="30" height="30" x="720" y="150" rx="0" ry="0"/>
    <rect width="30" height="30" x="810" y="150" rx="0" ry="0"/>
    <rect width="30" height="30" x="870" y="150" rx="0" ry="0"/>
    <rect width="30" height="30" x="930" y="150" rx="0" ry="0"/>
    <rect width="30" height="30" x="960" y="150" rx="0" ry="0"/>
    <rect width="30" height="30" x="990" y="150" rx="0" ry="0"/>
    <rect width="30" height="30" x="1020" y="150" rx="0" ry="0"/>
    <rect width="30" height="30" x="1050" y="150" rx="0" ry="0"/>
    <rect width="30" height="30" x="1080" y="150" rx="0" ry="0"/>
    <rect width="30" height="30" x="1110" y="150" rx="0" ry="0"/>
    <rect width="30" height="30" x="150" y="180" rx="0" ry="0"/>
    <rect width="30" height="30" x="330" y="180" rx="0" ry="0"/>
    <rect width="30" height="30" x="450" y="180" rx="0" ry="0"/>
    <rect width="30" height="30" x="570" y="180" rx="0" ry="0"/>
    <rect width="30" height="30" x="600" y="180" rx="0" ry="0"/>
    <rect width="30" height="30" x="690" y="180" rx="0" ry="0"/>
    <rect width="30" height="30" x="720" y="180" rx="0" ry="0"/>
    <rect width="30" height="30" x="780" y="180" rx="0" ry="0"/>
    <rect width="30" height="30" x="810" y="180" rx="0" ry="0"/>
    <rect width="30" height="30" x="870" y="180" rx="0" ry="0"/>
    <rect width="30" height="30" x="930" y="180" rx="0" ry="0"/>
    <rect width="30" height="30" x="1110" y="180" rx="0" ry="0"/>
    <rect width="30" height="30" x="150" y="210" rx="0" ry="0"/>
    <rect width="30" height="30" x="210" y="210" rx="0" ry="0"/>
    <rect width="30" height="30" x="240" y="210" rx="0" ry="0"/>
    <rect width="30" height="30" x="270" y="210" rx="0" ry="0"/>
    <rect width="30" height="30" x="330" y="210" rx="0" ry="0"/>
    <rect width="30" height="30" x="390" y="210" rx="0" ry="0"/>
    <rect width="30" height="30" x="450" y="210" rx="0" ry="0"/>
    <rect width="30" height="30" x="480" y="210" rx="0" ry="0"/>
    <rect width="30" height="30" x="540" y="210" rx="0" ry="0"/>
    <rect width="30" height="30" x="570" y="210" rx="0" ry="0"/>
    <rect width="30" height="30" x="600" y="210" rx="0" ry="0"/>
    <rect width="30" height="30" x="630" y="210" rx="0" ry="0"/>
    <rect width="30" height="30" x="660" y="210" rx="0" ry="0"/>
    <rect width="30" height="30" x="690" y="210" rx="0" ry="0"/>
    <rect width="30" height="30" x="780" y="210" rx="0" ry="0"/>
    <rect width="30" height="30" x="840" y="210" rx="0" ry="0"/>
    <rect width="30" height="30" x="870" y="210" rx="0" ry="0"/>
    <rect width="30" height="30" x="930" y="210" rx="0" ry="0"/>
    <rect width="30" height="30" x="990" y="210" rx="0" ry="0"/>
    <rect width="30" height="30" x="1020" y="210" rx="0" ry="0"/>
    <rect width="30" height="30" x="1050" y="210" rx="0" ry="0"/>
    <rect width="30" height="30" x="1110" y="210" rx="0" ry="0"/>
    <rect width="30" height="30" x="150" y="240" rx="0" ry="0"/>
    <rect width="30" height="30" x="210" y="240" rx="0" ry="0"/>
    <rect width="30" height="30" x="240" y="240" rx="0" ry="0"/>
    <rect width="30" height="30" x="270" y="240" rx="0" ry="0"/>
    <rect width="30" height="30" x="330" y="240" rx="0" ry="0"/>
    <rect width="30" height="30" x="450" y="240" rx="0" ry="0"/>
    <rect width="30" height="30" x="510" y="240" rx="0" ry="0"/>
    <rect width="30" height="30" x="540" y="240" rx="0" ry="0"/>
    <rect width="30" height="30" x="660" y="240" rx="0" ry="0"/>
    <rect width="30" height="30" x="690" y="240" rx="0" ry="0"/>
    <rect width="30" height="30" x="720" y="240" rx="0" ry="0"/>
    <rect width="30" height="30" x="750" y="240" rx="0" ry="0"/>
    <rect width="30" height="30" x="780" y="240" rx="0" ry="0"/>
    <rect width="30" height="30" x="840" y="240" rx="0" ry="0"/>
    <rect width="30" height="30" x="870" y="240" rx="0" ry="0"/>
    <rect width="30" height="30" x="930" y="240" rx="0" ry="0"/>
    <rect width="30" height="30" x="990" y="240" rx="0" ry="0"/>
    <rect width="30" height="30" x="1020" y="240" rx="0" ry="0"/>
    <rect width="30" height="30" x="1050" y="240" rx="0" ry="0"/>
    <rect width="30" height="30" x="1110" y="240" rx="0" ry="0"/>
    <rect width="30" height="30" x="150" y="270" rx="0" ry="0"/>
    <rect width="30" height="30" x="210" y="270" rx="0" ry="0"/>
    <rect width="30" height="30" x="240" y="270" rx="0" ry="0"/>
    <rect width="30" height="30" x="270" y="270" rx="0" ry="0"/>
    <rect width="30" height="30" x="330" y="270" rx="0" ry="0"/>
    <rect width="30" height="30" x="390" y="270" rx="0" ry="0"/>
    <rect width="30" height="30" x="450" y="270" rx="0" ry="0"/>
    <rect width="30" height="30" x="510" y="270" rx="0" ry="0"/>
    <rect width="30" height="30" x="570" y="270" rx="0" ry="0"/>
    <rect width="30" height="30" x="720" y="270" rx="0" ry="0"/>
    <rect width="30" height="30" x="780" y="270" rx="0" ry="0"/>
    <rect width="30" height="30" x="930" y="270" rx="0" ry="0"/>
    <rect width="30" height="30" x="990" y="270" rx="0" ry="0"/>
    <rect width="30" height="30" x="1020" y="270" rx="0" ry="0"/>
    <rect width="30" height="30" x="1050" y="270" rx="0" ry="0"/>
    <rect width="30" height="30" x="1110" y="270" rx="0" ry="0"/>
    <rect width="30" height="30" x="150" y="300" rx="0" ry="0"/>
    <rect width="30" height="30" x="330" y="300" rx="0" ry="0"/>
    <rect width="30" height="30" x="450" y="300" rx="0" ry="0"/>
    <rect width="30" height="30" x="480" y="300" rx="0" ry="0"/>
    <rect width="30" height="30" x="510" y="300" rx="0" ry="0"/>
    <rect width="30" height="30" x="570" y="300" rx="0" ry="0"/>
    <rect width="30" height="30" x="630" y="300" rx="0" ry="0"/>
    <rect width="30" height="30" x="660" y="300" rx="0" ry="0"/>
    <rect width="30" height="30" x="750" y="300" rx="0" ry="0"/>
    <rect width="30" height="30" x="780" y="300" rx="0" ry="0"/>
    <rect width="30" height="30" x="840" y="300" rx="0" ry="0"/>
    <rect width="30" height="30" x="870" y="300" rx="0" ry="0"/>
    <rect width="30" height="30" x="930" y="300" rx="0" ry="0"/>
    <rect width="30" height="30" x="1110" y="300" rx="0" ry="0"/>
    <rect width="30" height="30" x="150" y="330" rx="0" ry="0"/>
    <rect width="30" height="30" x="180" y="330" rx="0" ry="0"/>
    <rect width="30" height="30" x="210" y="330" rx="0" ry="0"/>
    <rect width="30" height="30" x="240" y="330" rx="0" ry="0"/>
    <rect width="30" height="30" x="270" y="330" rx="0" ry="0"/>
    <rect width="30" height="30" x="300" y="330" rx="0" ry="0"/>
    <rect width="30" height="30" x="330" y="330" rx="0" ry="0"/>
    <rect width="30" height="30" x="390" y="330" rx="0" ry="0"/>
    <rect width="30" height="30" x="450" y="330" rx="0" ry="0"/>
    <rect width="30" height="30" x="510" y="330" rx="0" ry="0"/>
    <rect width="30" height="30" x="570" y="330" rx="0" ry="0"/>
    <rect width="30" height="30" x="630" y="330" rx="0" ry="0"/>
    <rect width="30" height="30" x="690" y="330" rx="0" ry="0"/>
    <rect width="30" height="30" x="750" y="330" rx="0" ry="0"/>
    <rect width="30" height="30" x="810" y="330" rx="0" ry="0"/>
    <rect width="30" height="30" x="870" y="330" rx="0" ry="0"/>
    <rect width="30" height="30" x="930" y="330" rx="0" ry="0"/>
    <rect width="30" height="30" x="960" y="330" rx="0" ry="0"/>
    <rect width="30" height="30" x="990" y="330" rx="0" ry="0"/>
    <rect width="30" height="30" x="1020" y="330" rx="0" ry="0"/>
    <rect width="30" height="30" x="1050" y="330" rx="0" ry="0"/>
    <rect width="30" height="30" x="1080" y="330" rx="0" ry="0"/>
    <rect width="30" height="30" x="1110" y="330" rx="0" ry="0"/>
    <rect width="30" height="30" x="390" y="360" rx="0" ry="0"/>
    <rect width="30" height="30" x="450" y="360" rx="0" ry="0"/>
    <rect width="30" height="30" x="480" y="360" rx="0" ry="0"/>
    <rect width="30" height="30" x="540" y="360" rx="0" ry="0"/>
    <rect width="30" height="30" x="570" y="360" rx="0" ry="0"/>
    <rect width="30" height="30" x="810" y="360" rx="0" ry="0"/>
    <rect width="30" height="30" x="840" y="360" rx="0" ry="0"/>
    <rect width="30" height="30" x="300" y="390" rx="0" ry="0"/>
    <rect width="30" height="30" x="330" y="390" rx="0" ry="0"/>
    <rect width="30" height="30" x="480" y="390" rx="0" ry="0"/>
    <rect width="30" height="30" x="510" y="390" rx="0" ry="0"/>
    <rect width="30" height="30" x="540" y="390" rx="0" ry="0"/>
    <rect width="30" height="30" x="630" y="390" rx="0" ry="0"/>
    <rect width="30" height="30" x="660" y="390" rx="0" ry="0"/>
    <rect width="30" height="30" x="690" y="390" rx="0" ry="0"/>
    <rect width="30" height="30" x="720" y="390" rx="0" ry="0"/>
    <rect width="30" height="30" x="750" y="390" rx="0" ry="0"/>
    <rect width="30" height="30" x="810" y="390" rx="0" ry="0"/>
    <rect width="30" height="30" x="840" y="390" rx="0" ry="0"/>
    <rect width="30" height="30" x="870" y="390" rx="0" ry="0"/>
    <rect width="30" height="30" x="930" y="390" rx="0" ry="0"/>
    <rect width="30" height="30" x="990" y="390" rx="0" ry="0"/>
    <rect width="30" height="30" x="1050" y="390" rx="0" ry="0"/>
    <rect width="30" height="30" x="1110" y="390" rx="0" ry="0"/>
    <rect width="30" height="30" x="180" y="420" rx="0" ry="0"/>
    <rect width="30" height="30" x="270" y="420" rx="0" ry="0"/>
    <rect width="30" height="30" x="300" y="420" rx="0" ry="0"/>
    <rect width="30" height="30" x="390" y="420" rx="0" ry="0"/>
    <rect width="30" height="30" x="480" y="420" rx="0" ry="0"/>
    <rect width="30" height="30" x="570" y="420" rx="0" ry="0"/>
    <rect width="30" height="30" x="660" y="420" rx="0" ry="0"/>
    <rect width="30" height="30" x="690" y="420" rx="0" ry="0"/>
    <rect width="30" height="30" x="750" y="420" rx="0" ry="0"/>
    <rect width="30" height="30" x="810" y="420" rx="0" ry="0"/>
    <rect width="30" height="30" x="840" y="420" rx="0" ry="0"/>
    <rect width="30" height="30" x="900" y="420" rx="0" ry="0"/>
    <rect width="30" height="30" x="960" y="420" rx="0" ry="0"/>
    <rect width="30" height="30" x="990" y="420" rx="0" ry="0"/>
    <rect width="30" height="30" x="1020" y="420" rx="0" ry="0"/>
    <rect width="30" height="30" x="150" y="450" rx="0" ry="0"/>
    <rect width="30" height="30" x="210" y="450" rx="0" ry="0"/>
    <rect width="30" height="30" x="300" y="450" rx="0" ry="0"/>
    <rect width="30" height="30" x="330" y="450" rx="0" ry="0"/>
    <rect width="30" height="30" x="390" y="450" rx="0" ry="0"/>
    <rect width="30" height="30" x="420" y="450" rx="0" ry="0"/>
    <rect width="30" height="30" x="480" y="450" rx="0" ry="0"/>
    <rect width="30" height="30" x="510" y="450" rx="0" ry="0"/>
    <rect width="30" height="30" x="600" y="450" rx="0" ry="0"/>
    <rect width="30" height="30" x="630" y="450" rx="0" ry="0"/>
    <rect width="30" height="30" x="660" y="450" rx="0" ry="0"/>
    <rect width="30" height="30" x="690" y="450" rx="0" ry="0"/>
    <rect width="30" height="30" x="720" y="450" rx="0" ry="0"/>
    <rect width="30" height="30" x="750" y="450" rx="0" ry="0"/>
    <rect width="30" height="30" x="780" y="450" rx="0" ry="0"/>
    <rect width="30" height="30" x="870" y="450" rx="0" ry="0"/>
    <rect width="30" height="30" x="900" y="450" rx="0" ry="0"/>
    <rect width="30" height="30" x="930" y="450" rx="0" ry="0"/>
    <rect width="30" height="30" x="960" y="450" rx="0" ry="0"/>
    <rect width="30" height="30" x="1080" y="450" rx="0" ry="0"/>
    <rect width="30" height="30" x="180" y="480" rx="0" ry="0"/>
    <rect width="30" height="30" x="210" y="480" rx="0" ry="0"/>
    <rect width="30" height="30" x="300" y="480" rx="0" ry="0"/>
    <rect width="30" height="30" x="420" y="480" rx="0" ry="0"/>
    <rect width="30" height="30" x="450" y="480" rx="0" ry="0"/>
    <rect width="30" height="30" x="480" y="480" rx="0" ry="0"/>
    <rect width="30" height="30" x="540" y="480" rx="0" ry="0"/>
    <rect width="30" height="30" x="570" y="480" rx="0" ry="0"/>
    <rect width="30" height="30" x="630" y="480" rx="0" ry="0"/>
    <rect width="30" height="30" x="660" y="480" rx="0" ry="0"/>
    <rect width="30" height="30" x="690" y="480" rx="0" ry="0"/>
    <rect width="30" height="30" x="720" y="480" rx="0" ry="0"/>
    <rect width="30" height="30" x="750" y="480" rx="0" ry="0"/>
    <rect width="30" height="30" x="810" y="480" rx="0" ry="0"/>
    <rect width="30" height="30" x="900" y="480" rx="0" ry="0"/>
    <rect width="30" height="30" x="930" y="480" rx="0" ry="0"/>
    <rect width="30" height="30" x="960" y="480" rx="0" ry="0"/>
    <rect width="30" height="30" x="1020" y="480" rx="0" ry="0"/>
    <rect width="30" height="30" x="1050" y="480" rx="0" ry="0"/>
    <rect width="30" height="30" x="1110" y="480" rx="0" ry="0"/>
    <rect width="30" height="30" x="180" y="510" rx="0" ry="0"/>
    <rect width="30" height="30" x="330" y="510" rx="0" ry="0"/>
    <rect width="30" height="30" x="360" y="510" rx="0" ry="0"/>
    <rect width="30" height="30" x="390" y="510" rx="0" ry="0"/>
    <rect width="30" height="30" x="420" y="510" rx="0" ry="0"/>
    <rect width="30" height="30" x="660" y="510" rx="0" ry="0"/>
    <rect width="30" height="30" x="690" y="510" rx="0" ry="0"/>
    <rect width="30" height="30" x="720" y="510" rx="0" ry="0"/>
    <rect width="30" height="30" x="780" y="510" rx="0" ry="0"/>
    <rect width="30" height="30" x="810" y="510" rx="0" ry="0"/>
    <rect width="30" height="30" x="870" y="510" rx="0" ry="0"/>
    <rect width="30" height="30" x="930" y="510" rx="0" ry="0"/>
    <rect width="30" height="30" x="960" y="510" rx="0" ry="0"/>
    <rect width="30" height="30" x="990" y="510" rx="0" ry="0"/>
    <rect width="30" height="30" x="1080" y="510" rx="0" ry="0"/>
    <rect width="30" height="30" x="1110" y="510" rx="0" ry="0"/>
    <rect width="30" height="30" x="180" y="540" rx="0" ry="0"/>
    <rect width="30" height="30" x="210" y="540" rx="0" ry="0"/>
    <rect width="30" height="30" x="240" y="540" rx="0" ry="0"/>
    <rect width="30" height="30" x="270" y="540" rx="0" ry="0"/>
    <rect width="30" height="30" x="360" y="540" rx="0" ry="0"/>
    <rect width="30" height="30" x="390" y="540" rx="0" ry="0"/>
    <rect width="30" height="30" x="450" y="540" rx="0" ry="0"/>
    <rect width="30" height="30" x="540" y="540" rx="0" ry="0"/>
    <rect width="30" height="30" x="570" y="540" rx="0" ry="0"/>
    <rect width="30" height="30" x="600" y="540" rx="0" ry="0"/>
    <rect width="30" height="30" x="630" y="540" rx="0" ry="0"/>
    <rect width="30" height="30" x="660" y="540" rx="0" ry="0"/>
    <rect width="30" height="30" x="720" y="540" rx="0" ry="0"/>
    <rect width="30" height="30" x="780" y="540" rx="0" ry="0"/>
    <rect width="30" height="30" x="810" y="540" rx="0" ry="0"/>
    <rect width="30" height="30" x="840" y="540" rx="0" ry="0"/>
    <rect width="30" height="30" x="900" y="540" rx="0" ry="0"/>
    <rect width="30" height="30" x="930" y="540" rx="0" ry="0"/>
    <rect width="30" height="30" x="1020" y="540" rx="0" ry="0"/>
    <rect width="30" height="30" x="1110" y="540" rx="0" ry="0"/>
    <rect width="30" height="30" x="210" y="570" rx="0" ry="0"/>
    <rect width="30" height="30" x="240" y="570" rx="0" ry="0"/>
    <rect width="30" height="30" x="270" y="570" rx="0" ry="0"/>
    <rect width="30" height="30" x="330" y="570" rx="0" ry="0"/>
    <rect width="30" height="30" x="450" y="570" rx="0" ry="0"/>
    <rect width="30" height="30" x="510" y="570" rx="0" ry="0"/>
    <rect width="30" height="30" x="540" y="570" rx="0" ry="0"/>
    <rect width="30" height="30" x="600" y="570" rx="0" ry="0"/>
    <rect width="30" height="30" x="690" y="570" rx="0" ry="0"/>
    <rect width="30" height="30" x="720" y="570" rx="0" ry="0"/>
    <rect width="30" height="30" x="750" y="570" rx="0" ry="0"/>
    <rect width="30" height="30" x="810" y="570" rx="0" ry="0"/>
    <rect width="30" height="30" x="900" y="570" rx="0" ry="0"/>
    <rect width="30" height="30" x="930" y="570" rx="0" ry="0"/>
    <rect width="30" height="30" x="990" y="570" rx="0" ry="0"/>
    <rect width="30" height="30" x="1020" y="570" rx="0" ry="0"/>
    <rect width="30" height="30" x="1080" y="570" rx="0" ry="0"/>
    <rect width="30" height="30" x="150" y="600" rx="0" ry="0"/>
    <rect width="30" height="30" x="180" y="600" rx="0" ry="0"/>
    <rect width="30" height="30" x="240" y="600" rx="0" ry="0"/>
    <rect width="30" height="30" x="270" y="600" rx="0" ry="0"/>
    <rect width="30" height="30" x="360" y="600" rx="0" ry="0"/>
    <rect width="30" height="30" x="390" y="600" rx="0" ry="0"/>
    <rect width="30" height="30" x="480" y="600" rx="0" ry="0"/>
    <rect width="30" height="30" x="510" y="600" rx="0" ry="0"/>
    <rect width="30" height="30" x="540" y="600" rx="0" ry="0"/>
    <rect width="30" height="30" x="570" y="600" rx="0" ry="0"/>
    <rect width="30" height="30" x="600" y="600" rx="0" ry="0"/>
    <rect width="30" height="30" x="630" y="600" rx="0" ry="0"/>
    <rect width="30" height="30" x="660" y="600" rx="0" ry="0"/>
    <rect width="30" height="30" x="720" y="600" rx="0" ry="0"/>
    <rect width="30" height="30" x="870" y="600" rx="0" ry="0"/>
    <rect width="30" height="30" x="900" y="600" rx="0" ry="0"/>
    <rect width="30" height="30" x="960" y="600" rx="0" ry="0"/>
    <rect width="30" height="30" x="1020" y="600" rx="0" ry="0"/>
    <rect width="30" height="30" x="1050" y="600" rx="0" ry="0"/>
    <rect width="30" height="30" x="1080" y="600" rx="0" ry="0"/>
    <rect width="30" height="30" x="1110" y="600" rx="0" ry="0"/>
    <rect width="30" height="30" x="180" y="630" rx="0" ry="0"/>
    <rect width="30" height="30" x="270" y="630" rx="0" ry="0"/>
    <rect width="30" height="30" x="330" y="630" rx="0" ry="0"/>
    <rect width="30" height="30" x="390" y="630" rx="0" ry="0"/>
    <rect width="30" height="30" x="420" y="630" rx="0" ry="0"/>
    <rect width="30" height="30" x="450" y="630" rx="0" ry="0"/>
    <rect width="30" height="30" x="540" y="630" rx="0" ry="0"/>
    <rect width="30" height="30" x="570" y="630" rx="0" ry="0"/>
    <rect width="30" height="30" x="600" y="630" rx="0" ry="0"/>
    <rect width="30" height="30" x="630" y="630" rx="0" ry="0"/>
    <rect width="30" height="30" x="660" y="630" rx="0" ry="0"/>
    <rect width="30" height="30" x="690" y="630" rx="0" ry="0"/>
    <rect width="30" height="30" x="720" y="630" rx="0" ry="0"/>
    <rect width="30" height="30" x="750" y="630" rx="0" ry="0"/>
    <rect width="30" height="30" x="900" y="630" rx="0" ry="0"/>
    <rect width="30" height="30" x="960" y="630" rx="0" ry="0"/>
    <rect width="30" height="30" x="990" y="630" rx="0" ry="0"/>
    <rect width="30" height="30" x="1080" y="630" rx="0" ry="0"/>
    <rect width="30" height="30" x="1110" y="630" rx="0" ry="0"/>
    <rect width="30" height="30" x="180" y="660" rx="0" ry="0"/>
    <rect width="30" height="30" x="210" y="660" rx="0" ry="0"/>
    <rect width="30" height="30" x="270" y="660" rx="0" ry="0"/>
    <rect width="30" height="30" x="300" y="660" rx="0" ry="0"/>
    <rect width="30" height="30" x="390" y="660" rx="0" ry="0"/>
    <rect width="30" height="30" x="450" y="660" rx="0" ry="0"/>
    <rect width="30" height="30" x="510" y="660" rx="0" ry="0"/>
    <rect width="30" height="30" x="540" y="660" rx="0" ry="0"/>
    <rect width="30" height="30" x="570" y="660" rx="0" ry="0"/>
    <rect width="30" height="30" x="630" y="660" rx="0" ry="0"/>
    <rect width="30" height="30" x="660" y="660" rx="0" ry="0"/>
    <rect width="30" height="30" x="690" y="660" rx="0" ry="0"/>
    <rect width="30" height="30" x="750" y="660" rx="0" ry="0"/>
    <rect width="30" height="30" x="780" y="660" rx="0" ry="0"/>
    <rect width="30" height="30" x="840" y="660" rx="0" ry="0"/>
    <rect width="30" height="30" x="870" y="660" rx="0" ry="0"/>
    <rect width="30" height="30" x="930" y="660" rx="0" ry="0"/>
    <rect width="30" height="30" x="1110" y="660" rx="0" ry="0"/>
    <rect width="30" height="30" x="210" y="690" rx="0" ry="0"/>
    <rect width="30" height="30" x="240" y="690" rx="0" ry="0"/>
    <rect width="30" height="30" x="300" y="690" rx="0" ry="0"/>
    <rect width="30" height="30" x="330" y="690" rx="0" ry="0"/>
    <rect width="30" height="30" x="390" y="690" rx="0" ry="0"/>
    <rect width="30" height="30" x="420" y="690" rx="0" ry="0"/>
    <rect width="30" height="30" x="450" y="690" rx="0" ry="0"/>
    <rect width="30" height="30" x="480" y="690" rx="0" ry="0"/>
    <rect width="30" height="30" x="540" y="690" rx="0" ry="0"/>
    <rect width="30" height="30" x="600" y="690" rx="0" ry="0"/>
    <rect width="30" height="30" x="660" y="690" rx="0" ry="0"/>
    <rect width="30" height="30" x="690" y="690" rx="0" ry="0"/>
    <rect width="30" height="30" x="750" y="690" rx="0" ry="0"/>
    <rect width="30" height="30" x="840" y="690" rx="0" ry="0"/>
    <rect width="30" height="30" x="990" y="690" rx="0" ry="0"/>
    <rect width="30" height="30" x="1020" y="690" rx="0" ry="0"/>
    <rect width="30" height="30" x="1050" y="690" rx="0" ry="0"/>
    <rect width="30" height="30" x="1110" y="690" rx="0" ry="0"/>
    <rect width="30" height="30" x="150" y="720" rx="0" ry="0"/>
    <rect width="30" height="30" x="180" y="720" rx="0" ry="0"/>
    <rect width="30" height="30" x="240" y="720" rx="0" ry="0"/>
    <rect width="30" height="30" x="270" y="720" rx="0" ry="0"/>
    <rect width="30" height="30" x="360" y="720" rx="0" ry="0"/>
    <rect width="30" height="30" x="480" y="720" rx="0" ry="0"/>
    <rect width="30" height="30" x="510" y="720" rx="0" ry="0"/>
    <rect width="30" height="30" x="570" y="720" rx="0" ry="0"/>
    <rect width="30" height="30" x="600" y="720" rx="0" ry="0"/>
    <rect width="30" height="30" x="660" y="720" rx="0" ry="0"/>
    <rect width="30" height="30" x="690" y="720" rx="0" ry="0"/>
    <rect width="30" height="30" x="750" y="720" rx="0" ry="0"/>
    <rect width="30" height="30" x="810" y="720" rx="0" ry="0"/>
    <rect width="30" height="30" x="840" y="720" rx="0" ry="0"/>
    <rect width="30" height="30" x="870" y="720" rx="0" ry="0"/>
    <rect width="30" height="30" x="930" y="720" rx="0" ry="0"/>
    <rect width="30" height="30" x="960" y="720" rx="0" ry="0"/>
    <rect width="30" height="30" x="1020" y="720" rx="0" ry="0"/>
    <rect width="30" height="30" x="1050" y="720" rx="0" ry="0"/>
    <rect width="30" height="30" x="210" y="750" rx="0" ry="0"/>
    <rect width="30" height="30" x="240" y="750" rx="0" ry="0"/>
    <rect width="30" height="30" x="300" y="750" rx="0" ry="0"/>
    <rect width="30" height="30" x="330" y="750" rx="0" ry="0"/>
    <rect width="30" height="30" x="360" y="750" rx="0" ry="0"/>
    <rect width="30" height="30" x="390" y="750" rx="0" ry="0"/>
    <rect width="30" height="30" x="420" y="750" rx="0" ry="0"/>
    <rect width="30" height="30" x="510" y="750" rx="0" ry="0"/>
    <rect width="30" height="30" x="540" y="750" rx="0" ry="0"/>
    <rect width="30" height="30" x="600" y="750" rx="0" ry="0"/>
    <rect width="30" height="30" x="660" y="750" rx="0" ry="0"/>
    <rect width="30" height="30" x="750" y="750" rx="0" ry="0"/>
    <rect width="30" height="30" x="810" y="750" rx="0" ry="0"/>
    <rect width="30" height="30" x="900" y="750" rx="0" ry="0"/>
    <rect width="30" height="30" x="930" y="750" rx="0" ry="0"/>
    <rect width="30" height="30" x="960" y="750" rx="0" ry="0"/>
    <rect width="30" height="30" x="990" y="750" rx="0" ry="0"/>
    <rect width="30" height="30" x="1020" y="750" rx="0" ry="0"/>
    <rect width="30" height="30" x="1110" y="750" rx="0" ry="0"/>
    <rect width="30" height="30" x="150" y="780" rx="0" ry="0"/>
    <rect width="30" height="30" x="180" y="780" rx="0" ry="0"/>
    <rect width="30" height="30" x="270" y="780" rx="0" ry="0"/>
    <rect width="30" height="30" x="300" y="780" rx="0" ry="0"/>
    <rect width="30" height="30" x="390" y="780" rx="0" ry="0"/>
    <rect width="30" height="30" x="420" y="780" rx="0" ry="0"/>
    <rect width="30" height="30" x="510" y="780" rx="0" ry="0"/>
    <rect width="30" height="30" x="600" y="780" rx="0" ry="0"/>
    <rect width="30" height="30" x="630" y="780" rx="0" ry="0"/>
    <rect width="30" height="30" x="660" y="780" rx="0" ry="0"/>
    <rect width="30" height="30" x="690" y="780" rx="0" ry="0"/>
    <rect width="30" height="30" x="780" y="780" rx="0" ry="0"/>
    <rect width="30" height="30" x="870" y="780" rx="0" ry="0"/>
    <rect width="30" height="30" x="930" y="780" rx="0" ry="0"/>
    <rect width="30" height="30" x="960" y="780" rx="0" ry="0"/>
    <rect width="30" height="30" x="990" y="780" rx="0" ry="0"/>
    <rect width="30" height="30" x="150" y="810" rx="0" ry="0"/>
    <rect width="30" height="30" x="240" y="810" rx="0" ry="0"/>
    <rect width="30" height="30" x="270" y="810" rx="0" ry="0"/>
    <rect width="30" height="30" x="330" y="810" rx="0" ry="0"/>
    <rect width="30" height="30" x="360" y="810" rx="0" ry="0"/>
    <rect width="30" height="30" x="420" y="810" rx="0" ry="0"/>
    <rect width="30" height="30" x="450" y="810" rx="0" ry="0"/>
    <rect width="30" height="30" x="510" y="810" rx="0" ry="0"/>
    <rect width="30" height="30" x="540" y="810" rx="0" ry="0"/>
    <rect width="30" height="30" x="630" y="810" rx="0" ry="0"/>
    <rect width="30" height="30" x="690" y="810" rx="0" ry="0"/>
    <rect width="30" height="30" x="750" y="810" rx="0" ry="0"/>
    <rect width="30" height="30" x="810" y="810" rx="0" ry="0"/>
    <rect width="30" height="30" x="990" y="810" rx="0" ry="0"/>
    <rect width="30" height="30" x="1020" y="810" rx="0" ry="0"/>
    <rect width="30" height="30" x="1050" y="810" rx="0" ry="0"/>
    <rect width="30" height="30" x="150" y="840" rx="0" ry="0"/>
    <rect width="30" height="30" x="210" y="840" rx="0" ry="0"/>
    <rect width="30" height="30" x="270" y="840" rx="0" ry="0"/>
    <rect width="30" height="30" x="300" y="840" rx="0" ry="0"/>
    <rect width="30" height="30" x="360" y="840" rx="0" ry="0"/>
    <rect width="30" height="30" x="390" y="840" rx="0" ry="0"/>
    <rect width="30" height="30" x="450" y="840" rx="0" ry="0"/>
    <rect width="30" height="30" x="510" y="840" rx="0" ry="0"/>
    <rect width="30" height="30" x="570" y="840" rx="0" ry="0"/>
    <rect width="30" height="30" x="600" y="840" rx="0" ry="0"/>
    <rect width="30" height="30" x="630" y="840" rx="0" ry="0"/>
    <rect width="30" height="30" x="660" y="840" rx="0" ry="0"/>
    <rect width="30" height="30" x="720" y="840" rx="0" ry="0"/>
    <rect width="30" height="30" x="750" y="840" rx="0" ry="0"/>
    <rect width="30" height="30" x="810" y="840" rx="0" ry="0"/>
    <rect width="30" height="30" x="870" y="840" rx="0" ry="0"/>
    <rect width="30" height="30" x="960" y="840" rx="0" ry="0"/>
    <rect width="30" height="30" x="1020" y="840" rx="0" ry="0"/>
    <rect width="30" height="30" x="1050" y="840" rx="0" ry="0"/>
    <rect width="30" height="30" x="1110" y="840" rx="0" ry="0"/>
    <rect width="30" height="30" x="150" y="870" rx="0" ry="0"/>
    <rect width="30" height="30" x="180" y="870" rx="0" ry="0"/>
    <rect width="30" height="30" x="210" y="870" rx="0" ry="0"/>
    <rect width="30" height="30" x="240" y="870" rx="0" ry="0"/>
    <rect width="30" height="30" x="270" y="870" rx="0" ry="0"/>
    <rect width="30" height="30" x="330" y="870" rx="0" ry="0"/>
    <rect width="30" height="30" x="360" y="870" rx="0" ry="0"/>
    <rect width="30" height="30" x="450" y="870" rx="0" ry="0"/>
    <rect width="30" height="30" x="480" y="870" rx="0" ry="0"/>
    <rect width="30" height="30" x="510" y="870" rx="0" ry="0"/>
    <rect width="30" height="30" x="540" y="870" rx="0" ry="0"/>
    <rect width="30" height="30" x="570" y="870" rx="0" ry="0"/>
    <rect width="30" height="30" x="600" y="870" rx="0" ry="0"/>
    <rect width="30" height="30" x="660" y="870" rx="0" ry="0"/>
    <rect width="30" height="30" x="720" y="870" rx="0" ry="0"/>
    <rect width="30" height="30" x="840" y="870" rx="0" ry="0"/>
    <rect width="30" height="30" x="870" y="870" rx="0" ry="0"/>
    <rect width="30" height="30" x="900" y="870" rx="0" ry="0"/>
    <rect width="30" height="30" x="930" y="870" rx="0" ry="0"/>
    <rect width="30" height="30" x="960" y="870" rx="0" ry="0"/>
    <rect width="30" height="30" x="990" y="870" rx="0" ry="0"/>
    <rect width="30" height="30" x="1020" y="870" rx="0" ry="0"/>
    <rect width="30" height="30" x="1110" y="870" rx="0" ry="0"/>
    <rect width="30" height="30" x="390" y="900" rx="0" ry="0"/>
    <rect width="30" height="30" x="450" y="900" rx="0" ry="0"/>
    <rect width="30" height="30" x="510" y="900" rx="0" ry="0"/>
    <rect width="30" height="30" x="600" y="900" rx="0" ry="0"/>
    <rect width="30" height="30" x="630" y="900" rx="0" ry="0"/>
    <rect width="30" height="30" x="660" y="900" rx="0" ry="0"/>
    <rect width="30" height="30" x="690" y="900" rx="0" ry="0"/>
    <rect width="30" height="30" x="750" y="900" rx="0" ry="0"/>
    <rect width="30" height="30" x="780" y="900" rx="0" ry="0"/>
    <rect width="30" height="30" x="870" y="900" rx="0" ry="0"/>
    <rect width="30" height="30" x="990" y="900" rx="0" ry="0"/>
    <rect width="30" height="30" x="1050" y="900" rx="0" ry="0"/>
    <rect width="30" height="30" x="1080" y="900" rx="0" ry="0"/>
    <rect width="30" height="30" x="1110" y="900" rx="0" ry="0"/>
    <rect width="30" height="30" x="150" y="930" rx="0" ry="0"/>
    <rect width="30" height="30" x="180" y="930" rx="0" ry="0"/>
    <rect width="30" height="30" x="210" y="930" rx="0" ry="0"/>
    <rect width="30" height="30" x="240" y="930" rx="0" ry="0"/>
    <rect width="30" height="30" x="270" y="930" rx="0" ry="0"/>
    <rect width="30" height="30" x="300" y="930" rx="0" ry="0"/>
    <rect width="30" height="30" x="330" y="930" rx="0" ry="0"/>
    <rect width="30" height="30" x="420" y="930" rx="0" ry="0"/>
    <rect width="30" height="30" x="450" y="930" rx="0" ry="0"/>
    <rect width="30" height="30" x="510" y="930" rx="0" ry="0"/>
    <rect width="30" height="30" x="570" y="930" rx="0" ry="0"/>
    <rect width="30" height="30" x="600" y="930" rx="0" ry="0"/>
    <rect width="30" height="30" x="660" y="930" rx="0" ry="0"/>
    <rect width="30" height="30" x="720" y="930" rx="0" ry="0"/>
    <rect width="30" height="30" x="810" y="930" rx="0" ry="0"/>
    <rect width="30" height="30" x="840" y="930" rx="0" ry="0"/>
    <rect width="30" height="30" x="870" y="930" rx="0" ry="0"/>
    <rect width="30" height="30" x="930" y="930" rx="0" ry="0"/>
    <rect width="30" height="30" x="990" y="930" rx="0" ry="0"/>
    <rect width="30" height="30" x="1080" y="930" rx="0" ry="0"/>
    <rect width="30" height="30" x="150" y="960" rx="0" ry="0"/>
    <rect width="30" height="30" x="330" y="960" rx="0" ry="0"/>
    <rect width="30" height="30" x="390" y="960" rx="0" ry="0"/>
    <rect width="30" height="30" x="420" y="960" rx="0" ry="0"/>
    <rect width="30" height="30" x="450" y="960" rx="0" ry="0"/>
    <rect width="30" height="30" x="480" y="960" rx="0" ry="0"/>
    <rect width="30" height="30" x="510" y="960" rx="0" ry="0"/>
    <rect width="30" height="30" x="540" y="960" rx="0" ry="0"/>
    <rect width="30" height="30" x="690" y="960" rx="0" ry="0"/>
    <rect width="30" height="30" x="780" y="960" rx="0" ry="0"/>
    <rect width="30" height="30" x="810" y="960" rx="0" ry="0"/>
    <rect width="30" height="30" x="840" y="960" rx="0" ry="0"/>
    <rect width="30" height="30" x="870" y="960" rx="0" ry="0"/>
    <rect width="30" height="30" x="990" y="960" rx="0" ry="0"/>
    <rect width="30" height="30" x="1020" y="960" rx="0" ry="0"/>
    <rect width="30" height="30" x="1050" y="960" rx="0" ry="0"/>
    <rect width="30" height="30" x="1080" y="960" rx="0" ry="0"/>
    <rect width="30" height="30" x="150" y="990" rx="0" ry="0"/>
    <rect width="30" height="30" x="210" y="990" rx="0" ry="0"/>
    <rect width="30" height="30" x="240" y="990" rx="0" ry="0"/>
    <rect width="30" height="30" x="270" y="990" rx="0" ry="0"/>
    <rect width="30" height="30" x="330" y="990" rx="0" ry="0"/>
    <rect width="30" height="30" x="540" y="990" rx="0" ry="0"/>
    <rect width="30" height="30" x="570" y="990" rx="0" ry="0"/>
    <rect width="30" height="30" x="630" y="990" rx="0" ry="0"/>
    <rect width="30" height="30" x="690" y="990" rx="0" ry="0"/>
    <rect width="30" height="30" x="750" y="990" rx="0" ry="0"/>
    <rect width="30" height="30" x="780" y="990" rx="0" ry="0"/>
    <rect width="30" height="30" x="810" y="990" rx="0" ry="0"/>
    <rect width="30" height="30" x="870" y="990" rx="0" ry="0"/>
    <rect width="30" height="30" x="900" y="990" rx="0" ry="0"/>
    <rect width="30" height="30" x="930" y="990" rx="0" ry="0"/>
    <rect width="30" height="30" x="960" y="990" rx="0" ry="0"/>
    <rect width="30" height="30" x="990" y="990" rx="0" ry="0"/>
    <rect width="30" height="30" x="1020" y="990" rx="0" ry="0"/>
    <rect width="30" height="30" x="1080" y="990" rx="0" ry="0"/>
    <rect width="30" height="30" x="1110" y="990" rx="0" ry="0"/>
    <rect width="30" height="30" x="150" y="1020" rx="0" ry="0"/>
    <rect width="30" height="30" x="210" y="1020" rx="0" ry="0"/>
    <rect width="30" height="30" x="240" y="1020" rx="0" ry="0"/>
    <rect width="30" height="30" x="270" y="1020" rx="0" ry="0"/>
    <rect width="30" height="30" x="330" y="1020" rx="0" ry="0"/>
    <rect width="30" height="30" x="420" y="1020" rx="0" ry="0"/>
    <rect width="30" height="30" x="540" y="1020" rx="0" ry="0"/>
    <rect width="30" height="30" x="600" y="1020" rx="0" ry="0"/>
    <rect width="30" height="30" x="660" y="1020" rx="0" ry="0"/>
    <rect width="30" height="30" x="690" y="1020" rx="0" ry="0"/>
    <rect width="30" height="30" x="720" y="1020" rx="0" ry="0"/>
    <rect width="30" height="30" x="750" y="1020" rx="0" ry="0"/>
    <rect width="30" height="30" x="780" y="1020" rx="0" ry="0"/>
    <rect width="30" height="30" x="840" y="1020" rx="0" ry="0"/>
    <rect width="30" height="30" x="870" y="1020" rx="0" ry="0"/>
    <rect width="30" height="30" x="900" y="1020" rx="0" ry="0"/>
    <rect width="30" height="30" x="960" y="1020" rx="0" ry="0"/>
    <rect width="30" height="30" x="990" y="1020" rx="0" ry="0"/>
    <rect width="30" height="30" x="1020" y="1020" rx="0" ry="0"/>
    <rect width="30" height="30" x="1080" y="1020" rx="0" ry="0"/>
    <rect width="30" height="30" x="150" y="1050" rx="0" ry="0"/>
    <rect width="30" height="30" x="210" y="1050" rx="0" ry="0"/>
    <rect width="30" height="30" x="240" y="1050" rx="0" ry="0"/>
    <rect width="30" height="30" x="270" y="1050" rx="0" ry="0"/>
    <rect width="30" height="30" x="330" y="1050" rx="0" ry="0"/>
    <rect width="30" height="30" x="420" y="1050" rx="0" ry="0"/>
    <rect width="30" height="30" x="570" y="1050" rx="0" ry="0"/>
    <rect width="30" height="30" x="600" y="1050" rx="0" ry="0"/>
    <rect width="30" height="30" x="630" y="1050" rx="0" ry="0"/>
    <rect width="30" height="30" x="660" y="1050" rx="0" ry="0"/>
    <rect width="30" height="30" x="690" y="1050" rx="0" ry="0"/>
    <rect width="30" height="30" x="720" y="1050" rx="0" ry="0"/>
    <rect width="30" height="30" x="810" y="1050" rx="0" ry="0"/>
    <rect width="30" height="30" x="840" y="1050" rx="0" ry="0"/>
    <rect width="30" height="30" x="870" y="1050" rx="0" ry="0"/>
    <rect width="30" height="30" x="990" y="1050" rx="0" ry="0"/>
    <rect width="30" height="30" x="1020" y="1050" rx="0" ry="0"/>
    <rect width="30" height="30" x="1050" y="1050" rx="0" ry="0"/>
    <rect width="30" height="30" x="1080" y="1050" rx="0" ry="0"/>
    <rect width="30" height="30" x="1110" y="1050" rx="0" ry="0"/>
    <rect width="30" height="30" x="150" y="1080" rx="0" ry="0"/>
    <rect width="30" height="30" x="330" y="1080" rx="0" ry="0"/>
    <rect width="30" height="30" x="510" y="1080" rx="0" ry="0"/>
    <rect width="30" height="30" x="780" y="1080" rx="0" ry="0"/>
    <rect width="30" height="30" x="900" y="1080" rx="0" ry="0"/>
    <rect width="30" height="30" x="1050" y="1080" rx="0" ry="0"/>
    <rect width="30" height="30" x="150" y="1110" rx="0" ry="0"/>
    <rect width="30" height="30" x="180" y="1110" rx="0" ry="0"/>
    <rect width="30" height="30" x="210" y="1110" rx="0" ry="0"/>
    <rect width="30" height="30" x="240" y="1110" rx="0" ry="0"/>
    <rect width="30" height="30" x="270" y="1110" rx="0" ry="0"/>
    <rect width="30" height="30" x="300" y="1110" rx="0" ry="0"/>
    <rect width="30" height="30" x="330" y="1110" rx="0" ry="0"/>
    <rect width="30" height="30" x="420" y="1110" rx="0" ry="0"/>
    <rect width="30" height="30" x="480" y="1110" rx="0" ry="0"/>
    <rect width="30" height="30" x="510" y="1110" rx="0" ry="0"/>
    <rect width="30" height="30" x="600" y="1110" rx="0" ry="0"/>
    <rect width="30" height="30" x="630" y="1110" rx="0" ry="0"/>
    <rect width="30" height="30" x="690" y="1110" rx="0" ry="0"/>
    <rect width="30" height="30" x="720" y="1110" rx="0" ry="0"/>
    <rect width="30" height="30" x="750" y="1110" rx="0" ry="0"/>
    <rect width="30" height="30" x="780" y="1110" rx="0" ry="0"/>
    <rect width="30" height="30" x="810" y="1110" rx="0" ry="0"/>
    <rect width="30" height="30" x="840" y="1110" rx="0" ry="0"/>
    <rect width="30" height="30" x="870" y="1110" rx="0" ry="0"/>
    <rect width="30" height="30" x="930" y="1110" rx="0" ry="0"/>
    <rect width="30" height="30" x="1080" y="1110" rx="0" ry="0"/>
  </g>
  <rect width="120" height="120" x="585" y="585" rx="0" ry="0" style="fill:#fff;stroke:rgb()"/>
  <svg xmlns="http://www.w3.org/2000/svg" xmlns:xlink="http://www.w3.org/1999/xlink" xml:space="preserve" width="118" height="118" x="586" y="586" viewBox="0 0 300 300">
    <path d="M137.625.942v20.331h-26.076v23.424h26.076v25.192H51v25.192h86.625v112.454l-25.846-21.656v26.995l25.846 21.656v65.622h24.75v-44.903l25.863 21.674v-26.995l-25.863-21.674V95.081H249V69.888h-86.625V44.696h26.076V21.272h-26.076V.942h-24.75z"/>
  </svg>
</svg>
